<?xml version="1.0" encoding="UTF-8"?>
<!DOCTYPE svg PUBLIC "-//W3C//DTD SVG 1.1//EN" "http://www.w3.org/Graphics/SVG/1.1/DTD/svg11.dtd">
<!-- Creator: CorelDRAW -->
<svg xmlns="http://www.w3.org/2000/svg" xml:space="preserve" width="64px" height="64px" version="1.1" style="shape-rendering:geometricPrecision; text-rendering:geometricPrecision; image-rendering:optimizeQuality; fill-rule:evenodd; clip-rule:evenodd"
viewBox="0 0 64 64"
 xmlns:xlink="http://www.w3.org/1999/xlink"
 xmlns:xodm="http://www.corel.com/coreldraw/odm/2003">
 <defs>
  <style type="text/css">
   <![CDATA[
    .str0 {stroke:#32394B;stroke-width:0.13;stroke-miterlimit:22.9256}
    .fil8 {fill:#1E2430}
    .fil2 {fill:#32394B}
    .fil3 {fill:#4F298C}
    .fil12 {fill:#79808A}
    .fil7 {fill:#874DE3}
    .fil11 {fill:#979EA8}
    .fil10 {fill:#BA6B0B}
    .fil1 {fill:#BCC0CB}
    .fil4 {fill:#BFC3CC}
    .fil5 {fill:#DCE1E5}
    .fil6 {fill:#E2E3E7}
    .fil9 {fill:#FCA437}
    .fil0 {fill:#4F4F4F;fill-rule:nonzero}
   ]]>
  </style>
 </defs>
 <g id="Слой_x0020_1" visibility="hidden">
  <metadata id="CorelCorpID_0Corel-Layer"/>
  <path class="fil0" d="M20.43 46.56l-2.99 -2.99 0 0c-0.71,0.35 -1.87,1.09 -2.76,2.5 -0.9,1.4 -1.41,3.49 -1.68,4.93 1.44,-0.27 3.53,-0.78 4.93,-1.68 1.41,-0.89 2.15,-2.05 2.5,-2.76zm-6.24 -3.77c-1.09,0.67 -2.38,1.75 -3.39,3.43 -1.67,2.78 -2.29,7.22 -2.5,9.48 2.26,-0.22 6.7,-0.83 9.48,-2.5 1.68,-1.01 2.76,-2.3 3.43,-3.39 -0.51,0.56 -1.14,1.13 -1.93,1.63 -2.85,1.82 -7.62,2.3 -7.64,2.3 -0.69,0.07 -1.3,-0.43 -1.38,-1.12 -0.01,-0.1 -0.01,-0.19 0,-0.29 0.04,-0.34 0.54,-4.86 2.3,-7.61 0.5,-0.79 1.07,-1.42 1.63,-1.93zm-0.24 -2.71c-0.48,-0.5 -0.48,-1.28 0.01,-1.77 0.09,-0.09 0.18,-0.16 0.29,-0.22l1.95 -1.14 -0.29 -0.29c-0.27,-0.27 -0.39,-0.63 -0.36,-0.98l-9.83 -0.15c-0.7,-0.01 -1.25,-0.58 -1.24,-1.28 0.01,-0.34 0.15,-0.64 0.37,-0.86l0 -0.01 10.63 -10.63c0.27,-0.27 0.64,-0.4 1,-0.36l8.06 0.02c3.32,-4.18 7.25,-8.45 11.2,-11.23 3.36,-2.37 6.94,-3.9 10.24,-4.89 0.05,-0.02 0.11,-0.04 0.17,-0.06 3.99,-1.18 7.55,-1.57 9.77,-1.69l0.04 -0.01 0.23 -0.01 0.01 0 0.2 -0.01 0.09 0 0.03 0 0.14 -0.01 0.01 0 0.14 0 0.02 0 0.11 -0.01 0.02 0c0.31,-0.01 0.57,-0.01 0.78,-0.01l0.08 0 0.04 0 0.04 0 0.07 0 0.01 0 0.06 0 0.06 0 0.05 0 0 0 0.04 0.01 0.02 0 0.02 0 0.03 0 0 0 0.02 0 0 0 0.01 0 0.01 0 0.03 0 0.03 0 0.03 0.01 0.03 0 0.03 0 0.03 0.01 0.03 0 0.03 0.01 0.03 0.01 0.03 0 0.03 0.01 0.02 0.01 0.03 0.01 0.03 0.01 0.03 0.01 0.02 0.01 0.03 0.02 0.03 0.01 0.02 0.01 0.03 0.02 0.02 0.01 0.03 0.02 0.02 0.01 0.03 0.02 0.02 0.02 0.02 0.01 0.03 0.02 0.02 0.02 0.02 0.02 0.02 0.02 0.03 0.02 0.02 0.02 0.02 0.02 0.02 0.02 0.01 0.02 0 0 0.02 0.02 0.02 0.03 0.02 0.02 0 0 0.02 0.02 0.01 0.03 0.02 0.02 0.01 0.02 0.02 0.03 0 0 0.01 0.03 0.02 0.02 0.01 0.03 0.01 0.02 0.02 0.03 0.01 0.03 0.01 0.02 0.01 0.03 0.01 0.03 0 0 0.01 0.03 0 0 0.01 0.03 0 0 0 0.02 0.01 0.03 0 0 0.01 0.03 0 0.03 0 0 0.01 0.03 0 0 0 0.03 0 0.03 0 0 0.01 0.03 0 0 0 0.03 0 0 0 0.03 0 0 0 0.01 0 0 0 0.03 0 0 0 0.03 0 0.02 0 0.02 0.01 0.12 0 0.03 0 0.07 0 0c0,0.06 0,0.14 0,0.23l0 0 0 0 0 0.1 0 0.05 0 0.05 0 0.1 0 0.01c0,0.1 -0.01,0.21 -0.01,0.33l0 0.02 0 0.01 0 0.01 0 0.16 -0.01 0.02 0 0.08 0 0.14 0 0c-0.08,2.13 -0.42,6.09 -1.75,10.57 -0.01,0.03 -0.02,0.06 -0.04,0.09 -0.99,3.31 -2.52,6.89 -4.89,10.26 -2.78,3.95 -7.05,7.88 -11.23,11.19l0.02 8.07c0.04,0.36 -0.09,0.73 -0.36,1l-10.63 10.63 -0.01 0c-0.22,0.22 -0.53,0.36 -0.86,0.37 -0.7,0.01 -1.27,-0.54 -1.28,-1.24l-0.15 -9.83c-0.36,0.03 -0.72,-0.1 -0.98,-0.36l0 0 -0.29 -0.29 -1.16 1.98c-0.35,0.6 -1.12,0.81 -1.73,0.46 -0.09,-0.06 -0.17,-0.12 -0.24,-0.19 -0.76,1.56 -2.22,3.72 -4.85,5.3 -4.4,2.65 -12.05,2.96 -12.07,2.96 -0.69,0.04 -1.28,-0.5 -1.31,-1.19 -0.01,-0.04 0,-0.08 0,-0.12l0 -0.01c0.01,-0.32 0.36,-7.75 2.96,-12.06 1.58,-2.63 3.74,-4.09 5.3,-4.85zm3.14 -0.42l0 0 1.55 1.54 2.08 2.08 3.62 3.63 0.2 0.19 0.67 -1.14 -7.17 -7.17 -1.14 0.67 0.19 0.2zm-0.18 -6.47c1.11,-1.74 2.91,-4.49 5.16,-7.55l0.04 -0.05c0.17,-0.23 0.33,-0.45 0.5,-0.68l-5.72 -0.01 -8.16 8.17 8.18 0.12zm9.29 -8.83c-0.02,0.02 -0.04,0.05 -0.06,0.08l0 0c-1.43,1.83 -2.72,3.59 -3.81,5.15 -1.6,2.29 -2.89,4.29 -3.66,5.53l-0.03 0.05c-0.09,0.14 -0.17,0.28 -0.25,0.41l0.74 0.74 0.01 0.01 8.53 8.53 0 0 0.75 0.75c0.13,-0.08 0.27,-0.16 0.42,-0.25l0.04 -0.03c1.24,-0.77 3.24,-2.06 5.53,-3.66 1.56,-1.09 3.32,-2.38 5.15,-3.81l0 0c0.03,-0.02 0.05,-0.04 0.08,-0.06 4.13,-3.25 8.4,-7.12 11.13,-10.99 2.04,-2.91 3.42,-6 4.35,-8.9l-9.03 -9.03c-2.9,0.93 -5.99,2.3 -8.9,4.35 -3.87,2.73 -7.74,6.99 -10.99,11.13zm29.69 -9.24c0.86,-3.55 1.06,-6.54 1.11,-8.12 -1.58,0.05 -4.57,0.25 -8.12,1.11l7.01 7.01zm-8.48 1.47c1.46,1.46 2.19,3.38 2.2,5.3 0.01,1.91 -0.72,3.83 -2.17,5.28 -1.46,1.46 -3.37,2.18 -5.29,2.17 -1.91,0 -3.83,-0.74 -5.29,-2.2 -1.46,-1.46 -2.2,-3.38 -2.2,-5.29 -0.01,-1.92 0.71,-3.83 2.17,-5.29 1.45,-1.45 3.37,-2.18 5.28,-2.17 1.92,0.01 3.84,0.74 5.3,2.2zm-0.31 5.3c0,-1.27 -0.5,-2.54 -1.47,-3.52 -0.98,-0.98 -2.25,-1.47 -3.52,-1.47 -1.27,-0.01 -2.53,0.48 -3.5,1.44 -0.97,0.97 -1.45,2.24 -1.45,3.51 0.01,1.26 0.5,2.53 1.48,3.51 0.98,0.98 2.25,1.47 3.51,1.47 1.27,0.01 2.54,-0.47 3.51,-1.44 0.96,-0.97 1.44,-2.23 1.44,-3.5zm-8.84 20.11c-2.92,2.14 -5.55,3.88 -7.28,4.98l-0.06 0.03 -0.06 0.04 -0.05 0.04 0.12 8.18 8.17 -8.16 -0.01 -5.72c-0.26,0.19 -0.52,0.38 -0.78,0.57l-0.05 0.04z"/>
 </g>
 <g id="Слой_x0020_2">
  <metadata id="CorelCorpID_1Corel-Layer"/>
  <g id="_2524476616896">
   <path class="fil1" d="M42.5 7.59l0 8.39c0.9,0.24 1.8,0.5 2.67,0.8 5.39,1.83 9.24,6.69 9.77,12.84 0,-0.47 -0.01,-0.94 -0.01,-1.4 0,-1.12 -0.07,-2.22 -0.23,-3.29l0.01 0c-1.07,-7.57 -5.74,-13.96 -12.21,-17.34z"/>
   <path class="fil2 str0" d="M41.19 18.61c-4.16,-1.04 -7.39,-1.29 -9.19,-1.26 -2.14,0.03 -6.29,0.32 -11.6,1.93 -5.13,1.55 -8.67,5.84 -8.67,11.19l0 3.35c0,5.19 3.13,9.62 8.02,11.36 1.82,0.65 3.71,1.08 5.45,1.38 3.76,0.65 6.8,0.63 6.8,0.63 0,0 0.4,0.01 1.09,-0.02 8.16,-2.95 13.87,-9.7 13.87,-17.56 0,-3.85 -1.37,-7.44 -3.72,-10.44 -0.71,-0.21 -1.39,-0.39 -2.05,-0.56z"/>
   <path class="fil3" d="M55 35.92l0 0 0 0c-0.03,1.24 -0.09,2.47 -0.22,3.69 -0.02,0.25 -0.05,0.5 -0.08,0.74l0.95 0c2.47,0 4.51,-1.97 4.61,-4.43 0,-0.06 0,-0.12 0,-0.18l0 -6.2c0,-2.53 -2.08,-4.61 -4.61,-4.61l-0.94 0c0.15,1.07 0.22,2.17 0.22,3.29 0,0.46 0.01,0.93 0.01,1.4 0.03,2.1 0.1,4.21 0.06,6.3l5.26 0 -5.26 0z"/>
   <path class="fil3" d="M56.73 25.06c0.3,0.07 0.58,0.17 0.85,0.3l0 -14.6c0.84,-0.19 1.47,-0.94 1.47,-1.84 0,-1.05 -0.85,-1.9 -1.89,-1.9 -1.05,0 -1.9,0.85 -1.9,1.9 0,0.9 0.63,1.65 1.47,1.84l0 14.3z"/>
   <path class="fil4" d="M9.22 39.61c4.12,5.97 12.77,10.07 22.78,10.07 10.01,0 18.66,-4.1 22.78,-10.07 -0.02,0.25 -0.05,0.5 -0.08,0.74 -0.19,1.48 -0.49,2.95 -0.95,4.4 -0.02,0.02 -0.03,0.03 -0.05,0.05 -3.58,3.88 -11.95,6.61 -21.7,6.61 -9.75,0 -18.12,-2.73 -21.7,-6.61 -0.02,-0.02 -0.03,-0.03 -0.05,-0.05 -0.46,-1.45 -0.76,-2.92 -0.95,-4.4 -0.03,-0.24 -0.06,-0.49 -0.08,-0.74z"/>
   <path class="fil5" d="M21.5 7.59l0 8.39c-0.9,0.24 -1.8,0.5 -2.67,0.8 -5.39,1.83 -9.24,6.69 -9.77,12.84 0,-0.47 0,-0.94 0,-1.4 0,-1.12 0.08,-2.22 0.24,-3.29l-0.01 0c1.07,-7.57 5.74,-13.96 12.21,-17.34z"/>
   <path class="fil6" d="M9.06 29.62c0.53,-6.15 4.38,-11.01 9.77,-12.84 0.87,-0.3 1.77,-0.56 2.67,-0.8 5.28,-1.37 8.34,-1.67 10.5,-1.67 2.16,0 5.22,0.3 10.5,1.67 0.9,0.24 1.8,0.5 2.67,0.8 5.39,1.83 9.24,6.69 9.77,12.84 0.05,3.34 0.19,6.69 -0.16,9.99 -4.12,5.97 -12.77,10.07 -22.78,10.07 -10.01,0 -18.66,-4.1 -22.78,-10.07 -0.35,-3.3 -0.21,-6.65 -0.16,-9.99zm22.94 -12.27c-2.14,0.03 -6.29,0.32 -11.6,1.93 -5.13,1.55 -8.67,5.84 -8.67,11.19l0 3.35c0,5.19 3.13,9.62 8.02,11.36 5.75,2.04 12.25,2.01 12.25,2.01 0,0 6.5,0.03 12.25,-2.01 4.89,-1.74 8.02,-6.17 8.02,-11.36l0 -3.35c0,-5.35 -3.54,-9.64 -8.67,-11.19 -5.31,-1.61 -9.46,-1.97 -11.6,-1.93z"/>
   <path class="fil7" d="M9 35.92l0 0 0 0c0.03,1.24 0.09,2.47 0.22,3.69 0.02,0.25 0.05,0.5 0.08,0.74l-0.95 0c-2.47,0 -4.51,-1.97 -4.61,-4.43 0,-0.06 0,-0.12 0,-0.18l0 -6.2c0,-2.53 2.08,-4.61 4.61,-4.61l0.94 0c-0.15,1.07 -0.23,2.17 -0.23,3.29 0,0.46 0,0.93 0,1.4 -0.03,2.1 -0.1,4.21 -0.06,6.3l-5.26 0 5.26 0z"/>
   <path class="fil7" d="M7.27 25.06c-0.3,0.07 -0.58,0.17 -0.85,0.3l0 -14.6c-0.84,-0.19 -1.47,-0.94 -1.47,-1.84 0,-1.05 0.85,-1.9 1.89,-1.9 1.05,0 1.9,0.85 1.9,1.9 0,0.9 -0.63,1.65 -1.47,1.84l0 14.3z"/>
   <path class="fil8" d="M46.96 29.61c0,7.86 -5.71,14.61 -13.87,17.56 2.09,-0.09 6.84,-0.45 11.16,-1.99 4.89,-1.74 8.02,-6.17 8.02,-11.36l0 -3.35c0,-5.35 -3.54,-9.64 -8.67,-11.19 -0.12,-0.04 -0.24,-0.07 -0.36,-0.11 2.35,3 3.72,6.59 3.72,10.44z"/>
   <path class="fil4" d="M32 47.19c0,0 -3.04,0.02 -6.8,-0.63 -1.38,0.22 -2.8,0.33 -4.25,0.33 -0.97,0 -1.92,-0.05 -2.86,-0.15 3.99,1.86 8.77,2.94 13.91,2.94 10.01,0 18.66,-4.1 22.78,-10.07 0.13,-1.22 0.19,-2.45 0.22,-3.69 0.04,-2.09 -0.03,-4.2 -0.06,-6.3 -0.53,-6.15 -4.38,-11.01 -9.77,-12.84 -0.87,-0.3 -1.77,-0.56 -2.67,-0.8 -1.68,-0.43 -3.13,-0.76 -4.4,-1 1.19,1.1 2.23,2.32 3.09,3.63 0.66,0.17 1.34,0.35 2.05,0.56 0.12,0.04 0.24,0.07 0.36,0.11 5.13,1.55 8.67,5.84 8.67,11.19l0 3.35c0,5.19 -3.13,9.62 -8.02,11.36 -4.32,1.54 -9.07,1.9 -11.16,1.99 -0.69,0.03 -1.09,0.02 -1.09,0.02z"/>
   <path class="fil9" d="M21.5 15.98c5.28,-1.37 8.34,-1.67 10.5,-1.67l0 -9.28c-3.78,0 -7.35,0.92 -10.5,2.56l0 8.39z"/>
   <path class="fil10" d="M32 5.03l0 9.28c1.47,0 3.36,0.14 6.1,0.67 1.27,0.24 2.72,0.57 4.4,1l0 -8.39c-3.15,-1.64 -6.72,-2.56 -10.5,-2.56z"/>
   <path class="fil11" d="M10.36 44.86c-0.02,-0.02 -0.04,-0.04 -0.06,-0.06l0 4.79c0.02,0.02 0.04,0.03 0.06,0.05 0.63,0.48 1.33,0.93 2.06,1.35l0 3.83c4.56,2.53 11.63,4.15 19.58,4.15l0 -3.84 0 -3.72c-6.59,0 -16.9,-1.49 -21.64,-6.55z"/>
   <path class="fil12" d="M53.64 44.86c0.02,-0.02 0.04,-0.04 0.06,-0.06l0 4.79c-0.02,0.02 -0.04,0.03 -0.06,0.05 -0.63,0.48 -1.33,0.93 -2.06,1.35l0 3.83c-4.56,2.53 -11.63,4.15 -19.58,4.15l0 -3.84 0 -3.72c6.59,0 16.9,-1.49 21.64,-6.55z"/>
  </g>
 </g>
</svg>
