<?xml version="1.0" encoding="UTF-8"?>
<!DOCTYPE svg PUBLIC "-//W3C//DTD SVG 1.1//EN" "http://www.w3.org/Graphics/SVG/1.1/DTD/svg11.dtd">
<!-- Creator: CorelDRAW -->
<svg xmlns="http://www.w3.org/2000/svg" xml:space="preserve" width="64px" height="64px" version="1.1" style="shape-rendering:geometricPrecision; text-rendering:geometricPrecision; image-rendering:optimizeQuality; fill-rule:evenodd; clip-rule:evenodd"
viewBox="0 0 64 64"
 xmlns:xlink="http://www.w3.org/1999/xlink"
 xmlns:xodm="http://www.corel.com/coreldraw/odm/2003">
 <defs>
  <style type="text/css">
   <![CDATA[
    .str1 {stroke:#8A8A8A;stroke-width:2.52;stroke-linejoin:round;stroke-miterlimit:22.9256}
    .str0 {stroke:#8A8A8A;stroke-width:3.15;stroke-linejoin:round;stroke-miterlimit:22.9256}
    .fil1 {fill:none}
    .fil2 {fill:#8A8A8A}
    .fil0 {fill:#4F4F4F;fill-rule:nonzero}
   ]]>
  </style>
 </defs>
 <g id="Слой_x0020_1" visibility="hidden">
  <metadata id="CorelCorpID_0Corel-Layer"/>
  <path class="fil0" d="M20.43 46.56l-2.99 -2.99 0 0c-0.71,0.35 -1.87,1.09 -2.76,2.5 -0.9,1.4 -1.41,3.49 -1.68,4.93 1.44,-0.27 3.53,-0.78 4.93,-1.68 1.41,-0.89 2.15,-2.05 2.5,-2.76zm-6.24 -3.77c-1.09,0.67 -2.38,1.75 -3.39,3.43 -1.67,2.78 -2.29,7.22 -2.5,9.48 2.26,-0.22 6.7,-0.83 9.48,-2.5 1.68,-1.01 2.76,-2.3 3.43,-3.39 -0.51,0.56 -1.14,1.13 -1.93,1.63 -2.85,1.82 -7.62,2.3 -7.64,2.3 -0.69,0.07 -1.3,-0.43 -1.38,-1.12 -0.01,-0.1 -0.01,-0.19 0,-0.29 0.04,-0.34 0.54,-4.86 2.3,-7.61 0.5,-0.79 1.07,-1.42 1.63,-1.93zm-0.24 -2.71c-0.48,-0.5 -0.48,-1.28 0.01,-1.77 0.09,-0.09 0.18,-0.16 0.29,-0.22l1.95 -1.14 -0.29 -0.29c-0.27,-0.27 -0.39,-0.63 -0.36,-0.98l-9.83 -0.15c-0.7,-0.01 -1.25,-0.58 -1.24,-1.28 0.01,-0.34 0.15,-0.64 0.37,-0.86l0 -0.01 10.63 -10.63c0.27,-0.27 0.64,-0.4 1,-0.36l8.06 0.02c3.32,-4.18 7.25,-8.45 11.2,-11.23 3.36,-2.37 6.94,-3.9 10.24,-4.89 0.05,-0.02 0.11,-0.04 0.17,-0.06 3.99,-1.18 7.55,-1.57 9.77,-1.69l0.04 -0.01 0.23 -0.01 0.01 0 0.2 -0.01 0.09 0 0.03 0 0.14 -0.01 0.01 0 0.14 0 0.02 0 0.11 -0.01 0.02 0c0.31,-0.01 0.57,-0.01 0.78,-0.01l0.08 0 0.04 0 0.04 0 0.07 0 0.01 0 0.06 0 0.06 0 0.05 0 0 0 0.04 0.01 0.02 0 0.02 0 0.03 0 0 0 0.02 0 0 0 0.01 0 0.01 0 0.03 0 0.03 0 0.03 0.01 0.03 0 0.03 0 0.03 0.01 0.03 0 0.03 0.01 0.03 0.01 0.03 0 0.03 0.01 0.02 0.01 0.03 0.01 0.03 0.01 0.03 0.01 0.02 0.01 0.03 0.02 0.03 0.01 0.02 0.01 0.03 0.02 0.02 0.01 0.03 0.02 0.02 0.01 0.03 0.02 0.02 0.02 0.02 0.01 0.03 0.02 0.02 0.02 0.02 0.02 0.02 0.02 0.03 0.02 0.02 0.02 0.02 0.02 0.02 0.02 0.01 0.02 0 0 0.02 0.02 0.02 0.03 0.02 0.02 0 0 0.02 0.02 0.01 0.03 0.02 0.02 0.01 0.02 0.02 0.03 0 0 0.01 0.03 0.02 0.02 0.01 0.03 0.01 0.02 0.02 0.03 0.01 0.03 0.01 0.02 0.01 0.03 0.01 0.03 0 0 0.01 0.03 0 0 0.01 0.03 0 0 0 0.02 0.01 0.03 0 0 0.01 0.03 0 0.03 0 0 0.01 0.03 0 0 0 0.03 0 0.03 0 0 0.01 0.03 0 0 0 0.03 0 0 0 0.03 0 0 0 0.01 0 0 0 0.03 0 0 0 0.03 0 0.02 0 0.02 0.01 0.12 0 0.03 0 0.07 0 0c0,0.06 0,0.14 0,0.23l0 0 0 0 0 0.1 0 0.05 0 0.05 0 0.1 0 0.01c0,0.1 -0.01,0.21 -0.01,0.33l0 0.02 0 0.01 0 0.01 0 0.16 -0.01 0.02 0 0.08 0 0.14 0 0c-0.08,2.13 -0.42,6.09 -1.75,10.57 -0.01,0.03 -0.02,0.06 -0.04,0.09 -0.99,3.31 -2.52,6.89 -4.89,10.26 -2.78,3.95 -7.05,7.88 -11.23,11.19l0.02 8.07c0.04,0.36 -0.09,0.73 -0.36,1l-10.63 10.63 -0.01 0c-0.22,0.22 -0.53,0.36 -0.86,0.37 -0.7,0.01 -1.27,-0.54 -1.28,-1.24l-0.15 -9.83c-0.36,0.03 -0.72,-0.1 -0.98,-0.36l0 0 -0.29 -0.29 -1.16 1.98c-0.35,0.6 -1.12,0.81 -1.73,0.46 -0.09,-0.06 -0.17,-0.12 -0.24,-0.19 -0.76,1.56 -2.22,3.72 -4.85,5.3 -4.4,2.65 -12.05,2.96 -12.07,2.96 -0.69,0.04 -1.28,-0.5 -1.31,-1.19 -0.01,-0.04 0,-0.08 0,-0.12l0 -0.01c0.01,-0.32 0.36,-7.75 2.96,-12.06 1.58,-2.63 3.74,-4.09 5.3,-4.85zm3.14 -0.42l0 0 1.55 1.54 2.08 2.08 3.62 3.63 0.2 0.19 0.67 -1.14 -7.17 -7.17 -1.14 0.67 0.19 0.2zm-0.18 -6.47c1.11,-1.74 2.91,-4.49 5.16,-7.55l0.04 -0.05c0.17,-0.23 0.33,-0.45 0.5,-0.68l-5.72 -0.01 -8.16 8.17 8.18 0.12zm9.29 -8.83c-0.02,0.02 -0.04,0.05 -0.06,0.08l0 0c-1.43,1.83 -2.72,3.59 -3.81,5.15 -1.6,2.29 -2.89,4.29 -3.66,5.53l-0.03 0.05c-0.09,0.14 -0.17,0.28 -0.25,0.41l0.74 0.74 0.01 0.01 8.53 8.53 0 0 0.75 0.75c0.13,-0.08 0.27,-0.16 0.42,-0.25l0.04 -0.03c1.24,-0.77 3.24,-2.06 5.53,-3.66 1.56,-1.09 3.32,-2.38 5.15,-3.81l0 0c0.03,-0.02 0.05,-0.04 0.08,-0.06 4.13,-3.25 8.4,-7.12 11.13,-10.99 2.04,-2.91 3.42,-6 4.35,-8.9l-9.03 -9.03c-2.9,0.93 -5.99,2.3 -8.9,4.35 -3.87,2.73 -7.74,6.99 -10.99,11.13zm29.69 -9.24c0.86,-3.55 1.06,-6.54 1.11,-8.12 -1.58,0.05 -4.57,0.25 -8.12,1.11l7.01 7.01zm-8.48 1.47c1.46,1.46 2.19,3.38 2.2,5.3 0.01,1.91 -0.72,3.83 -2.17,5.28 -1.46,1.46 -3.37,2.18 -5.29,2.17 -1.91,0 -3.83,-0.74 -5.29,-2.2 -1.46,-1.46 -2.2,-3.38 -2.2,-5.29 -0.01,-1.92 0.71,-3.83 2.17,-5.29 1.45,-1.45 3.37,-2.18 5.28,-2.17 1.92,0.01 3.84,0.74 5.3,2.2zm-0.31 5.3c0,-1.27 -0.5,-2.54 -1.47,-3.52 -0.98,-0.98 -2.25,-1.47 -3.52,-1.47 -1.27,-0.01 -2.53,0.48 -3.5,1.44 -0.97,0.97 -1.45,2.24 -1.45,3.51 0.01,1.26 0.5,2.53 1.48,3.51 0.98,0.98 2.25,1.47 3.51,1.47 1.27,0.01 2.54,-0.47 3.51,-1.44 0.96,-0.97 1.44,-2.23 1.44,-3.5zm-8.84 20.11c-2.92,2.14 -5.55,3.88 -7.28,4.98l-0.06 0.03 -0.06 0.04 -0.05 0.04 0.12 8.18 8.17 -8.16 -0.01 -5.72c-0.26,0.19 -0.52,0.38 -0.78,0.57l-0.05 0.04z"/>
 </g>
 <g id="Слой_x0020_2">
  <metadata id="CorelCorpID_1Corel-Layer"/>
  <g id="_2559814165728">
   <path class="fil1 str0" d="M59.24 35.42c0.01,-0.06 0.01,-0.12 0.01,-0.18l0 -5.97c0,-2.45 -2.01,-4.45 -4.45,-4.45l-0.91 0c0.15,1.03 0.22,2.09 0.22,3.17 0,0.45 0.01,0.9 0.01,1.35 0.02,1.42 0.06,2.83 0.06,4.24l0 0c-0.02,1.19 -0.09,4.21 -0.21,5.4 -0.03,0.23 -0.06,0.47 -0.09,0.71l0.92 0c2.39,0 4.35,-1.91 4.44,-4.27z"/>
   <path class="fil2 str1" d="M55.85 18.06c0.28,0.07 0.55,0.16 0.81,0.28l0 -8.73c0.81,-0.19 1.42,-0.92 1.42,-1.78 0,-1.01 -0.82,-1.83 -1.83,-1.83 -1,0 -1.82,0.82 -1.82,1.83 0,0.86 0.6,1.59 1.42,1.78l0 8.45z"/>
   <path class="fil1 str0" d="M4.76 35.42c-0.01,-0.06 -0.01,-0.12 -0.01,-0.18l0 -5.97c0,-2.45 2.01,-4.45 4.45,-4.45l0.91 0c-0.15,1.03 -0.22,2.09 -0.22,3.17 0,0.45 -0.01,0.9 -0.01,1.35 -0.02,1.38 -0.05,2.75 -0.06,4.13 0.02,1.19 0.09,4.32 0.21,5.51 0.03,0.23 0.06,0.47 0.09,0.71l-0.92 0c-2.39,0 -4.35,-1.91 -4.44,-4.27z"/>
   <path class="fil2 str1" d="M8.15 16.99c-0.28,0.07 -0.55,0.17 -0.81,0.29l0 -7.67c-0.81,-0.19 -1.42,-0.92 -1.42,-1.78 0,-1.01 0.82,-1.83 1.83,-1.83 1,0 1.82,0.82 1.82,1.83 0,0.86 -0.6,1.59 -1.42,1.78l0 7.38z"/>
   <path class="fil1 str0" d="M13.13 49.94l0 4.42c4.38,2.44 11.21,4.01 18.87,4.01 7.66,0 14.48,-1.57 18.87,-4.01l0 -4.42c0.71,-0.4 1.38,-0.83 2,-1.3 0.01,-0.02 0.03,-0.03 0.05,-0.04l0 -4.62c0.02,-0.02 0.03,-0.04 0.05,-0.05 1.5,-4.75 1.21,-9.67 1.15,-14.59 0,-0.45 -0.01,-0.9 -0.01,-1.35 0,-1.08 -0.07,-2.13 -0.22,-3.17l0 0c-1.02,-7.3 -5.53,-13.46 -11.77,-16.72 -3.03,-1.58 -6.47,-2.47 -10.12,-2.47 -3.65,0 -7.09,0.89 -10.12,2.47 -6.24,3.26 -10.75,9.42 -11.77,16.72l0 0c-0.15,1.04 -0.22,2.09 -0.22,3.17 0,0.45 -0.01,0.9 -0.01,1.35 -0.04,3.45 -0.2,6.92 0.24,10.35 0.18,1.42 0.47,2.84 0.91,4.24 0.02,0.01 0.03,0.03 0.05,0.05l0 4.62c0.02,0.01 0.03,0.02 0.05,0.04 0.62,0.47 1.29,0.9 2,1.3z"/>
   <g>
    <path class="fil2" d="M32.05 18.91c-1.13,0.02 -2.8,0.11 -4.96,0.42 -2.12,0.29 -4.69,0.81 -7.63,1.7 -2.38,0.72 -4.37,2.06 -5.74,3.83 -1.31,1.68 -2.06,3.79 -2.06,6.13l0 3.88c0,2.35 0.7,4.51 1.94,6.27 1.24,1.77 3.04,3.15 5.25,3.93 6.14,2.18 13.13,2.15 13.15,2.15 0.02,0 7.01,0.03 13.15,-2.15 2.21,-0.78 4.01,-2.16 5.25,-3.93 1.24,-1.76 1.94,-3.92 1.94,-6.27l0 -3.88c0,-2.34 -0.75,-4.45 -2.06,-6.13 -1.37,-1.77 -3.36,-3.11 -5.74,-3.83 -2.54,-0.77 -4.8,-1.27 -6.73,-1.59l0 0c-2.55,-0.43 -4.51,-0.55 -5.76,-0.53zm-0.05 -3.13c-2.48,0.04 -7.29,0.37 -13.45,2.23 -5.94,1.8 -10.04,6.78 -10.04,12.98l0 3.88c0,6.02 3.62,11.15 9.29,13.17 6.67,2.37 14.2,2.33 14.2,2.33 0,0 7.53,0.04 14.2,-2.33 5.67,-2.02 9.29,-7.15 9.29,-13.17l0 -3.88c0,-6.2 -4.1,-11.18 -10.04,-12.98 -6.16,-1.86 -10.97,-2.27 -13.45,-2.23z"/>
   </g>
   <path class="fil1 str0" d="M42.38 18.47c8.18,12.6 3.96,22.27 -10.38,30.14"/>
  </g>
 </g>
</svg>
