<?xml version="1.0" encoding="UTF-8"?>
<!DOCTYPE svg PUBLIC "-//W3C//DTD SVG 1.1//EN" "http://www.w3.org/Graphics/SVG/1.1/DTD/svg11.dtd">
<!-- Creator: CorelDRAW -->
<svg xmlns="http://www.w3.org/2000/svg" xml:space="preserve" width="64px" height="64px" version="1.1" style="shape-rendering:geometricPrecision; text-rendering:geometricPrecision; image-rendering:optimizeQuality; fill-rule:evenodd; clip-rule:evenodd"
viewBox="0 0 64 64"
 xmlns:xlink="http://www.w3.org/1999/xlink"
 xmlns:xodm="http://www.corel.com/coreldraw/odm/2003">
 <defs>
  <style type="text/css">
   <![CDATA[
    .fil2 {fill:#8A8A8A}
    .fil0 {fill:#4F4F4F;fill-rule:nonzero}
    .fil1 {fill:#8A8A8A;fill-rule:nonzero}
   ]]>
  </style>
 </defs>
 <g id="Слой_x0020_1" visibility="hidden">
  <metadata id="CorelCorpID_0Corel-Layer"/>
  <path class="fil0" d="M20.98 45.87l-2.85 -2.85 0 0c-0.67,0.33 -1.78,1.04 -2.63,2.38 -0.85,1.33 -1.34,3.32 -1.6,4.7 1.38,-0.26 3.37,-0.75 4.7,-1.6 1.34,-0.85 2.05,-1.96 2.38,-2.63zm-5.94 -3.59c-1.04,0.63 -2.27,1.66 -3.23,3.26 -1.59,2.65 -2.18,6.88 -2.38,9.03 2.15,-0.21 6.38,-0.79 9.03,-2.38 1.6,-0.96 2.63,-2.19 3.26,-3.23 -0.48,0.54 -1.08,1.08 -1.83,1.55 -2.72,1.74 -7.26,2.2 -7.28,2.2 -0.66,0.06 -1.24,-0.41 -1.31,-1.07 -0.01,-0.1 -0.01,-0.18 0,-0.28 0.03,-0.32 0.51,-4.63 2.19,-7.25 0.47,-0.75 1.01,-1.35 1.55,-1.83l0 0zm-0.23 -2.58c-0.46,-0.48 -0.46,-1.22 0.01,-1.69 0.08,-0.09 0.17,-0.15 0.27,-0.21l1.86 -1.09 -0.27 -0.27c-0.26,-0.26 -0.38,-0.6 -0.35,-0.94l-9.36 -0.14c-0.67,-0.01 -1.19,-0.55 -1.18,-1.22 0.01,-0.32 0.14,-0.61 0.35,-0.82l0 -0.01 10.13 -10.12c0.25,-0.26 0.61,-0.38 0.95,-0.34l7.67 0.02c3.17,-3.98 6.91,-8.05 10.67,-10.7 3.2,-2.26 6.61,-3.71 9.75,-4.66 0.05,-0.01 0.11,-0.03 0.17,-0.05 3.8,-1.13 7.19,-1.5 9.3,-1.61l0.04 -0.01 0.22 -0.01 0.01 0 0.19 -0.01 0.08 0 0.03 0 0.13 -0.01 0.01 0 0.14 0 0.02 0 0.1 -0.01 0.02 0c0.3,-0.01 0.54,-0.01 0.74,-0.01l0.08 0 0.04 0 0.04 0 0.06 0 0.01 0 0.06 0 0.06 0 0.04 0 0 0 0.04 0.01 0.02 0 0.02 0 0.03 0 0 0 0.02 0 0 0 0.01 0 0.01 0 0.02 0 0.03 0 0.03 0.01 0.03 0 0.03 0 0.03 0.01 0.03 0 0.02 0.01 0.03 0.01 0.03 0 0.03 0.01 0.02 0.01 0.03 0.01 0.03 0.01 0.02 0 0.02 0.01 0.03 0.02 0.03 0.01 0.02 0.01 0.03 0.02 0.02 0.01 0.02 0.02 0.02 0.01 0.03 0.02 0.02 0.02 0.02 0.01 0.03 0.02 0.02 0.01 0.02 0.02 0.02 0.02 0.02 0.02 0.02 0.02 0.02 0.02 0.02 0.02 0.01 0.02 0 0 0.02 0.02 0.02 0.03 0.02 0.01 0 0 0.02 0.02 0.01 0.03 0.02 0.02 0 0.02 0.02 0.03 0 0 0.01 0.03 0.02 0.02 0.01 0.02 0.01 0.02 0.02 0.03 0.01 0.03 0.01 0.02 0.01 0.03 0.01 0.03 0 0 0.01 0.03 0 0 0.01 0.02 0 0 0 0.02 0.01 0.03 0 0 0.01 0.03 0 0.03 0 0 0 0.03 0 0 0 0.02 0 0.03 0 0 0.01 0.03 0 0 0 0.03 0 0 0 0.03 0 0 0 0.01 0 0 0 0.03 0 0 0 0.02 0 0.02 0 0.02 0.01 0.12 0 0.03 0 0.06 0 0c0,0.06 0,0.14 0,0.22l0 0 0 0 0 0.1 0 0.04 0 0.05 0 0.1 0 0.01c0,0.09 -0.01,0.2 -0.01,0.31l0 0.02 0 0.01 0 0.01 0 0.15 -0.01 0.02 0 0.08 0 0.13 0 0c-0.07,2.03 -0.4,5.8 -1.66,10.07 -0.01,0.02 -0.02,0.05 -0.04,0.08 -0.94,3.15 -2.4,6.56 -4.66,9.77 -2.64,3.77 -6.71,7.51 -10.69,10.66l0.02 7.69c0.03,0.34 -0.09,0.69 -0.35,0.95l-10.12 10.12 -0.01 0c-0.21,0.21 -0.5,0.35 -0.82,0.36 -0.67,0 -1.21,-0.52 -1.22,-1.19l-0.14 -9.36c-0.34,0.03 -0.69,-0.09 -0.93,-0.34l0 0 -0.28 -0.28 -1.11 1.89c-0.33,0.57 -1.06,0.77 -1.64,0.44 -0.09,-0.06 -0.16,-0.12 -0.23,-0.18 -0.73,1.48 -2.12,3.54 -4.62,5.04 -4.19,2.53 -11.48,2.82 -11.5,2.82 -0.65,0.04 -1.21,-0.47 -1.24,-1.13 -0.01,-0.04 0,-0.08 0,-0.12l0 0c0.01,-0.31 0.34,-7.39 2.82,-11.49 1.5,-2.51 3.56,-3.9 5.04,-4.62l0.01 0.01zm2.99 -0.4l0 0 1.48 1.46 1.98 1.98 3.44 3.46 0.2 0.18 0.63 -1.08 -6.83 -6.83 -1.08 0.63 0.18 0.2zm-0.17 -6.17c1.06,-1.65 2.77,-4.27 4.91,-7.19l0.04 -0.04c0.16,-0.22 0.32,-0.43 0.48,-0.65l-5.45 -0.01 -7.77 7.78 7.79 0.11 0 0zm8.85 -8.41c-0.02,0.02 -0.04,0.05 -0.06,0.08l0 0c-1.36,1.74 -2.59,3.42 -3.63,4.9 -1.52,2.19 -2.75,4.09 -3.49,5.27l-0.02 0.05c-0.09,0.13 -0.17,0.27 -0.24,0.39l0.7 0.7 0.01 0.01 8.13 8.13 0 0 0.71 0.71c0.12,-0.07 0.26,-0.15 0.4,-0.24l0.04 -0.02c1.18,-0.74 3.08,-1.97 5.26,-3.49 1.49,-1.04 3.17,-2.27 4.91,-3.63l0 0c0.03,-0.02 0.05,-0.04 0.08,-0.06 3.93,-3.09 8,-6.78 10.6,-10.46 1.94,-2.77 3.25,-5.72 4.14,-8.48l-8.6 -8.6c-2.76,0.89 -5.71,2.19 -8.48,4.14 -3.68,2.6 -7.37,6.66 -10.46,10.6l0 0zm28.27 -8.8c0.82,-3.38 1.01,-6.23 1.06,-7.73 -1.5,0.05 -4.35,0.24 -7.73,1.06l6.67 6.67zm-8.07 1.4c1.39,1.39 2.08,3.22 2.09,5.05 0.01,1.82 -0.68,3.65 -2.06,5.03 -1.4,1.39 -3.21,2.08 -5.04,2.07 -1.82,0 -3.65,-0.71 -5.04,-2.1 -1.39,-1.39 -2.1,-3.22 -2.1,-5.04 -0.01,-1.83 0.68,-3.64 2.07,-5.03 1.38,-1.39 3.21,-2.08 5.03,-2.07 1.83,0.01 3.66,0.7 5.05,2.09l0 0zm-0.3 5.05c0,-1.21 -0.48,-2.42 -1.4,-3.35 -0.93,-0.93 -2.14,-1.4 -3.35,-1.4 -1.21,-0.01 -2.41,0.46 -3.33,1.37 -0.93,0.92 -1.39,2.13 -1.39,3.34 0.01,1.2 0.48,2.41 1.41,3.35 0.94,0.93 2.15,1.4 3.35,1.4 1.21,0.01 2.42,-0.45 3.34,-1.37 0.91,-0.93 1.37,-2.13 1.37,-3.34l0 0zm-8.42 19.15c-2.78,2.04 -5.28,3.7 -6.93,4.75l-0.06 0.03 -0.06 0.03 -0.04 0.04 0.11 7.79 7.78 -7.77 -0.01 -5.45c-0.25,0.18 -0.49,0.36 -0.74,0.55l-0.05 0.03z"/>
 </g>
 <g id="Слой_x0020_2">
  <metadata id="CorelCorpID_1Corel-Layer"/>
  <path class="fil1" d="M28.04 8.55c4.13,-0.67 8.18,-0.13 11.8,1.36 3.73,1.53 6.99,4.09 9.37,7.37l0.7 0.96 -0.72 0.94c-0.02,0.03 -5.96,7.97 -13.11,14.57 -7.79,7.19 -16.8,13.03 -16.82,13.05l-1 0.65 -0.9 -0.78c-0.69,-0.58 -1.35,-1.22 -1.97,-1.9 -0.61,-0.68 -1.19,-1.39 -1.71,-2.14 -0.94,-1.33 -1.37,-2.07 -2.09,-3.69 -0.37,-0.83 -0.69,-1.71 -0.96,-2.62 -0.27,-0.91 -0.48,-1.82 -0.63,-2.72 -0.97,-5.95 0.57,-11.72 3.83,-16.26 3.27,-4.53 8.26,-7.82 14.21,-8.79zm10.59 4.3c-3.08,-1.27 -6.54,-1.72 -10.08,-1.15 -5.08,0.83 -9.34,3.64 -12.12,7.51 -2.79,3.87 -4.1,8.8 -3.27,13.88 0.13,0.83 0.31,1.61 0.53,2.33 0.06,0.22 0.13,0.44 0.2,0.66l1.38 3.09 1.68 2.51 0 0c0.26,0.33 0.52,0.64 0.8,0.94 0.26,0.28 1.8,1.69 2.07,1.96 2.53,-1.71 11.09,-7.59 17.14,-13.17 5.46,-5.04 8.01,-10.2 9.79,-12.48 -1.96,-2.36 -5.3,-4.92 -8.12,-6.08zm14.24 12.6l0.22 1.13c0.97,5.95 -0.56,11.73 -3.83,16.27 -3.26,4.53 -8.25,7.82 -14.2,8.79 -3.07,0.5 -5.82,-0.29 -8.5,-1.06l-3.26 -0.93 2.75 -1.72c0.02,-0.02 8.52,-6.8 12.03,-10.05 3.27,-3.04 12.04,-12.2 12.06,-12.22l2.09 -3.16 0.64 2.95zm-6.2 15.53c2.38,-3.31 3.68,-7.4 3.49,-11.69 -2.98,3.09 -8.05,8.31 -10.34,10.43 -2.37,2.21 -7.19,6.07 -10.14,8.4 1.61,0.39 3.24,0.63 4.86,0.36 5.08,-0.82 9.34,-3.63 12.13,-7.5z"/>
  <path class="fil1" d="M28.04 8.55c0.25,-0.04 0.57,-0.08 0.96,-0.13 0.39,-0.05 0.72,-0.08 0.96,-0.1l0.34 -0.02 0.34 0.13c3.6,1.36 6.79,3.64 9.22,6.61 2.35,2.88 4,6.39 4.64,10.31 0.05,0.27 -1.11,0.42 -1.06,0.82 -1.22,-0.18 -2.62,1.37 -2.09,-0.31 -0.04,-0.24 -0.09,-0.48 -0.14,-0.72 -0.62,-3.07 -1.96,-5.81 -3.82,-8.08 -2,-2.45 -4.6,-4.35 -7.53,-5.52l-0.48 0.04c-0.21,0.03 -0.49,0.07 -0.83,0.13 -5.08,0.82 -9.34,3.63 -12.12,7.5 -2.79,3.87 -4.1,8.8 -3.27,13.88 0.13,0.83 0.31,1.61 0.53,2.33 0.06,0.22 0.13,0.44 0.2,0.66l1.38 3.09 1.68 2.51 0 0c0.49,0.62 1.02,1.2 1.58,1.75 0.82,0.8 1.72,1.53 2.69,2.18l-2.42 2.2c-1.12,-0.75 -1.52,-1.15 -2.49,-2.1 -2.18,-2.12 -3.62,-4.29 -4.72,-6.77 -0.37,-0.83 -0.69,-1.71 -0.96,-2.61 -0.27,-0.92 -0.48,-1.83 -0.63,-2.73 -0.97,-5.95 0.57,-11.72 3.83,-16.26 3.27,-4.53 8.26,-7.82 14.21,-8.79z"/>
  <path class="fil2" d="M40.82 8.71c4.75,-3.32 8.76,-5.56 11.92,-6.69 4.21,-1.51 7.41,-1.19 9.43,0.99 2.77,3 1.15,8.9 -3.71,16.01 -4.09,6 -10.56,13.36 -18.42,20.65l0.01 0 -0.02 0.01c-7.86,7.29 -15.69,13.18 -21.99,16.82 -7.46,4.3 -13.46,5.47 -16.24,2.47 -2.08,-2.24 -1.85,-5.82 0.28,-10.21 1.69,-3.51 4.66,-7.86 8.58,-12.57l1.59 -2.5 2.8 5.99 1.93 3.37 0.67 0.43c-2.09,3.1 -0.45,1.11 1.38,0.51 4.07,-2.48 9.22,-6.46 14.49,-11.34 5.28,-4.9 9.64,-9.73 12.4,-13.58 0.96,-1.33 1.83,-2.32 2.45,-2.99 -0.3,0.15 -0.63,0.33 -0.99,0.54l-1.56 0.88c-2.46,-2.67 -3.75,-4.34 -9.3,-5.78l4.3 -3.01zm1.82 2.61c9.06,-6.33 15.05,-8.44 17.19,-6.14 3.24,3.5 -6.59,17.9 -21.96,32.16 -15.38,14.25 -30.48,22.97 -33.73,19.47 -2.19,-2.37 1.57,-9.69 8.97,-18.58l0.76 1.71 1.16 1.72c-2.59,3.73 -3.69,6.52 -2.72,7.57 2.05,2.21 12.51,-4.17 23.38,-14.24 10.86,-10.07 18.01,-20.03 15.97,-22.24 -0.92,-0.99 -2.26,-0.94 -5.85,1.09 0,0 -1.08,-0.98 -1.83,-1.55 -0.81,-0.61 -1.34,-0.97 -1.34,-0.97z"/>
  <path class="fil1" d="M18.51 29.51c-0.16,0.78 -0.92,1.29 -1.71,1.13 -0.78,-0.16 -1.29,-0.92 -1.13,-1.7 0.63,-3.12 2,-6 3.94,-8.42 1.94,-2.43 4.44,-4.4 7.34,-5.71 0.73,-0.33 1.59,0 1.91,0.73 0.33,0.73 0.01,1.59 -0.72,1.92 -2.49,1.12 -4.63,2.8 -6.27,4.86 -1.65,2.06 -2.82,4.52 -3.36,7.19z"/>
  <path class="fil2" d="M10.26 3.05c0,0 0.68,3.02 1.75,4.06 1.04,1.04 4.07,1.75 4.07,1.75 0,0 -3.03,0.69 -4.07,1.73 -1.07,1.04 -1.75,4.06 -1.75,4.06 0,0 -0.72,-3.02 -1.76,-4.06 -1.04,-1.04 -4.06,-1.73 -4.06,-1.73 0,0 3.02,-0.71 4.06,-1.75 1.04,-1.04 1.76,-4.06 1.76,-4.06z"/>
  <path class="fil2" d="M38.22 0.13c0,0 0.41,1.81 1.05,2.43 0.62,0.62 2.43,1.05 2.43,1.05 0,0 -1.81,0.41 -2.43,1.03 -0.64,0.62 -1.05,2.43 -1.05,2.43 0,0 -0.43,-1.81 -1.05,-2.43 -0.62,-0.62 -2.43,-1.03 -2.43,-1.03 0,0 1.81,-0.43 2.43,-1.05 0.62,-0.62 1.05,-2.43 1.05,-2.43z"/>
  <path class="fil2" d="M27.62 53.56c0,0 0.41,1.81 1.05,2.43 0.63,0.62 2.43,1.05 2.43,1.05 0,0 -1.8,0.41 -2.43,1.03 -0.64,0.62 -1.05,2.43 -1.05,2.43 0,0 -0.42,-1.81 -1.05,-2.43 -0.62,-0.63 -2.43,-1.03 -2.43,-1.03 0,0 1.81,-0.43 2.43,-1.05 0.63,-0.63 1.05,-2.43 1.05,-2.43z"/>
  <path class="fil2" d="M52.69 43.94c0,0 0.81,3.61 2.09,4.85 1.24,1.25 4.85,2.1 4.85,2.1 0,0 -3.61,0.81 -4.85,2.06 -1.28,1.24 -2.09,4.85 -2.09,4.85 0,0 -0.86,-3.61 -2.1,-4.85 -1.24,-1.25 -4.85,-2.06 -4.85,-2.06 0,0 3.61,-0.85 4.85,-2.1 1.24,-1.24 2.1,-4.85 2.1,-4.85z"/>
 </g>
</svg>
