<?xml version="1.0" encoding="UTF-8"?>
<!DOCTYPE svg PUBLIC "-//W3C//DTD SVG 1.1//EN" "http://www.w3.org/Graphics/SVG/1.1/DTD/svg11.dtd">
<!-- Creator: CorelDRAW -->
<svg xmlns="http://www.w3.org/2000/svg" xml:space="preserve" width="64px" height="64px" version="1.1" style="shape-rendering:geometricPrecision; text-rendering:geometricPrecision; image-rendering:optimizeQuality; fill-rule:evenodd; clip-rule:evenodd"
viewBox="0 0 64 64"
 xmlns:xlink="http://www.w3.org/1999/xlink"
 xmlns:xodm="http://www.corel.com/coreldraw/odm/2003">
 <defs>
  <style type="text/css">
   <![CDATA[
    .fil3 {fill:#21A3C7}
    .fil4 {fill:#54C2E5}
    .fil2 {fill:#EDA016}
    .fil1 {fill:#FDC846}
    .fil0 {fill:#4F4F4F;fill-rule:nonzero}
    .fil5 {fill:white;fill-rule:nonzero}
   ]]>
  </style>
 </defs>
 <g id="Слой_x0020_1" visibility="hidden">
  <metadata id="CorelCorpID_0Corel-Layer"/>
  <path class="fil0" d="M20.98 45.87l-2.85 -2.85 0 0c-0.67,0.33 -1.78,1.04 -2.63,2.38 -0.85,1.33 -1.34,3.32 -1.6,4.7 1.38,-0.26 3.37,-0.75 4.7,-1.6 1.34,-0.85 2.05,-1.96 2.38,-2.63zm-5.94 -3.59c-1.04,0.63 -2.27,1.66 -3.23,3.26 -1.59,2.65 -2.18,6.88 -2.38,9.03 2.15,-0.21 6.38,-0.79 9.03,-2.38 1.6,-0.96 2.63,-2.19 3.26,-3.23 -0.48,0.54 -1.08,1.08 -1.83,1.55 -2.72,1.74 -7.26,2.2 -7.28,2.2 -0.66,0.06 -1.24,-0.41 -1.31,-1.07 -0.01,-0.1 -0.01,-0.18 0,-0.28 0.03,-0.32 0.51,-4.63 2.19,-7.25 0.47,-0.75 1.01,-1.35 1.55,-1.83l0 0zm-0.23 -2.58c-0.46,-0.48 -0.46,-1.22 0.01,-1.69 0.08,-0.09 0.17,-0.15 0.27,-0.21l1.86 -1.09 -0.27 -0.27c-0.26,-0.26 -0.38,-0.6 -0.35,-0.94l-9.36 -0.14c-0.67,-0.01 -1.19,-0.55 -1.18,-1.22 0.01,-0.32 0.14,-0.61 0.35,-0.82l0 -0.01 10.13 -10.12c0.25,-0.26 0.61,-0.38 0.95,-0.34l7.67 0.02c3.17,-3.98 6.91,-8.05 10.67,-10.7 3.2,-2.26 6.61,-3.71 9.75,-4.66 0.05,-0.01 0.11,-0.03 0.17,-0.05 3.8,-1.13 7.19,-1.5 9.3,-1.61l0.04 -0.01 0.22 -0.01 0.01 0 0.19 -0.01 0.08 0 0.03 0 0.13 -0.01 0.01 0 0.14 0 0.02 0 0.1 -0.01 0.02 0c0.3,-0.01 0.54,-0.01 0.74,-0.01l0.08 0 0.04 0 0.04 0 0.06 0 0.01 0 0.06 0 0.06 0 0.04 0 0 0 0.04 0.01 0.02 0 0.02 0 0.03 0 0 0 0.02 0 0 0 0.01 0 0.01 0 0.02 0 0.03 0 0.03 0.01 0.03 0 0.03 0 0.03 0.01 0.03 0 0.02 0.01 0.03 0.01 0.03 0 0.03 0.01 0.02 0.01 0.03 0.01 0.03 0.01 0.02 0 0.02 0.01 0.03 0.02 0.03 0.01 0.02 0.01 0.03 0.02 0.02 0.01 0.02 0.02 0.02 0.01 0.03 0.02 0.02 0.02 0.02 0.01 0.03 0.02 0.02 0.01 0.02 0.02 0.02 0.02 0.02 0.02 0.02 0.02 0.02 0.02 0.02 0.02 0.01 0.02 0 0 0.02 0.02 0.02 0.03 0.02 0.01 0 0 0.02 0.02 0.01 0.03 0.02 0.02 0 0.02 0.02 0.03 0 0 0.01 0.03 0.02 0.02 0.01 0.02 0.01 0.02 0.02 0.03 0.01 0.03 0.01 0.02 0.01 0.03 0.01 0.03 0 0 0.01 0.03 0 0 0.01 0.02 0 0 0 0.02 0.01 0.03 0 0 0.01 0.03 0 0.03 0 0 0 0.03 0 0 0 0.02 0 0.03 0 0 0.01 0.03 0 0 0 0.03 0 0 0 0.03 0 0 0 0.01 0 0 0 0.03 0 0 0 0.02 0 0.02 0 0.02 0.01 0.12 0 0.03 0 0.06 0 0c0,0.06 0,0.14 0,0.22l0 0 0 0 0 0.1 0 0.04 0 0.05 0 0.1 0 0.01c0,0.09 -0.01,0.2 -0.01,0.31l0 0.02 0 0.01 0 0.01 0 0.15 -0.01 0.02 0 0.08 0 0.13 0 0c-0.07,2.03 -0.4,5.8 -1.66,10.07 -0.01,0.02 -0.02,0.05 -0.04,0.08 -0.94,3.15 -2.4,6.56 -4.66,9.77 -2.64,3.77 -6.71,7.51 -10.69,10.66l0.02 7.69c0.03,0.34 -0.09,0.69 -0.35,0.95l-10.12 10.12 -0.01 0c-0.21,0.21 -0.5,0.35 -0.82,0.36 -0.67,0 -1.21,-0.52 -1.22,-1.19l-0.14 -9.36c-0.34,0.03 -0.69,-0.09 -0.93,-0.34l0 0 -0.28 -0.28 -1.11 1.89c-0.33,0.57 -1.06,0.77 -1.64,0.44 -0.09,-0.06 -0.16,-0.12 -0.23,-0.18 -0.73,1.48 -2.12,3.54 -4.62,5.04 -4.19,2.53 -11.48,2.82 -11.5,2.82 -0.65,0.04 -1.21,-0.47 -1.24,-1.13 -0.01,-0.04 0,-0.08 0,-0.12l0 0c0.01,-0.31 0.34,-7.39 2.82,-11.49 1.5,-2.51 3.56,-3.9 5.04,-4.62l0.01 0.01zm2.99 -0.4l0 0 1.48 1.46 1.98 1.98 3.44 3.46 0.2 0.18 0.63 -1.08 -6.83 -6.83 -1.08 0.63 0.18 0.2zm-0.17 -6.17c1.06,-1.65 2.77,-4.27 4.91,-7.19l0.04 -0.04c0.16,-0.22 0.32,-0.43 0.48,-0.65l-5.45 -0.01 -7.77 7.78 7.79 0.11 0 0zm8.85 -8.41c-0.02,0.02 -0.04,0.05 -0.06,0.08l0 0c-1.36,1.74 -2.59,3.42 -3.63,4.9 -1.52,2.19 -2.75,4.09 -3.49,5.27l-0.02 0.05c-0.09,0.13 -0.17,0.27 -0.24,0.39l0.7 0.7 0.01 0.01 8.13 8.13 0 0 0.71 0.71c0.12,-0.07 0.26,-0.15 0.4,-0.24l0.04 -0.02c1.18,-0.74 3.08,-1.97 5.26,-3.49 1.49,-1.04 3.17,-2.27 4.91,-3.63l0 0c0.03,-0.02 0.05,-0.04 0.08,-0.06 3.93,-3.09 8,-6.78 10.6,-10.46 1.94,-2.77 3.25,-5.72 4.14,-8.48l-8.6 -8.6c-2.76,0.89 -5.71,2.19 -8.48,4.14 -3.68,2.6 -7.37,6.66 -10.46,10.6l0 0zm28.27 -8.8c0.82,-3.38 1.01,-6.23 1.06,-7.73 -1.5,0.05 -4.35,0.24 -7.73,1.06l6.67 6.67zm-8.07 1.4c1.39,1.39 2.08,3.22 2.09,5.05 0.01,1.82 -0.68,3.65 -2.06,5.03 -1.4,1.39 -3.21,2.08 -5.04,2.07 -1.82,0 -3.65,-0.71 -5.04,-2.1 -1.39,-1.39 -2.1,-3.22 -2.1,-5.04 -0.01,-1.83 0.68,-3.64 2.07,-5.03 1.38,-1.39 3.21,-2.08 5.03,-2.07 1.83,0.01 3.66,0.7 5.05,2.09l0 0zm-0.3 5.05c0,-1.21 -0.48,-2.42 -1.4,-3.35 -0.93,-0.93 -2.14,-1.4 -3.35,-1.4 -1.21,-0.01 -2.41,0.46 -3.33,1.37 -0.93,0.92 -1.39,2.13 -1.39,3.34 0.01,1.2 0.48,2.41 1.41,3.35 0.94,0.93 2.15,1.4 3.35,1.4 1.21,0.01 2.42,-0.45 3.34,-1.37 0.91,-0.93 1.37,-2.13 1.37,-3.34l0 0zm-8.42 19.15c-2.78,2.04 -5.28,3.7 -6.93,4.75l-0.06 0.03 -0.06 0.03 -0.04 0.04 0.11 7.79 7.78 -7.77 -0.01 -5.45c-0.25,0.18 -0.49,0.36 -0.74,0.55l-0.05 0.03z"/>
 </g>
 <g id="Слой_x0020_2">
  <metadata id="CorelCorpID_1Corel-Layer"/>
  <path class="fil1" d="M10.33 3.04c0,0 0.68,3.02 1.76,4.06 1.04,1.04 4.06,1.76 4.06,1.76 0,0 -3.03,0.68 -4.06,1.72 -1.08,1.04 -1.76,4.06 -1.76,4.06 0,0 -0.71,-3.02 -1.75,-4.06 -1.04,-1.04 -4.07,-1.72 -4.07,-1.72 0,0 3.03,-0.72 4.07,-1.76 1.04,-1.04 1.75,-4.06 1.75,-4.06z"/>
  <path class="fil1" d="M38.29 0.12c0,0 0.41,1.81 1.05,2.43 0.63,0.62 2.44,1.05 2.44,1.05 0,0 -1.81,0.41 -2.44,1.03 -0.64,0.62 -1.05,2.43 -1.05,2.43 0,0 -0.42,-1.81 -1.05,-2.43 -0.62,-0.62 -2.43,-1.03 -2.43,-1.03 0,0 1.81,-0.43 2.43,-1.05 0.63,-0.62 1.05,-2.43 1.05,-2.43z"/>
  <path class="fil2" d="M27.7 53.55c0,0 0.4,1.81 1.05,2.43 0.62,0.62 2.43,1.05 2.43,1.05 0,0 -1.81,0.41 -2.43,1.03 -0.65,0.62 -1.05,2.43 -1.05,2.43 0,0 -0.43,-1.81 -1.05,-2.43 -0.63,-0.62 -2.43,-1.03 -2.43,-1.03 0,0 1.8,-0.43 2.43,-1.05 0.62,-0.62 1.05,-2.43 1.05,-2.43z"/>
  <path class="fil2" d="M52.76 43.94c0,0 0.81,3.61 2.09,4.85 1.25,1.24 4.85,2.09 4.85,2.09 0,0 -3.61,0.82 -4.85,2.06 -1.28,1.24 -2.09,4.85 -2.09,4.85 0,0 -0.86,-3.61 -2.1,-4.85 -1.24,-1.24 -4.85,-2.06 -4.85,-2.06 0,0 3.61,-0.85 4.85,-2.09 1.24,-1.25 2.1,-4.85 2.1,-4.85z"/>
  <path class="fil3" d="M27.32 7.52c9.39,-1.71 18.48,2.75 23.09,10.49 -3.04,4.63 -8.16,10.63 -14.45,16.69 -6.04,5.8 -11.98,10.53 -16.63,13.43 -2.32,-1.47 -4.35,-3.38 -5.99,-5.62l0.04 -0.06 -1.3 -1.86 -0.01 -0.02 -0.87 -1.85 -0.06 0.07c-0.78,-1.68 -1.37,-3.49 -1.72,-5.41 -2.19,-12.08 5.82,-23.66 17.9,-25.86zm25 14.61c0.37,1.06 0.66,2.15 0.86,3.29 2.2,12.08 -5.81,23.66 -17.89,25.86 -4.17,0.76 -8.28,0.3 -11.97,-1.12 4.75,-3.57 9.91,-7.95 15.08,-12.93 5.37,-5.17 10.1,-10.34 13.92,-15.1z"/>
  <path class="fil4" d="M27.32 7.52c0.66,-0.12 1.31,-0.21 1.96,-0.27 7.25,2.58 12.96,8.86 14.44,16.98 0.12,0.69 0.21,1.38 0.27,2.06 -2.35,2.7 -5.06,5.55 -8.03,8.41 -6.04,5.8 -11.98,10.53 -16.63,13.43 -2.32,-1.47 -4.35,-3.38 -5.99,-5.62l-0.05 -0.07c-0.92,-1.41 -1.38,-2.17 -2.15,-3.65 -0.78,-1.68 -1.37,-3.49 -1.72,-5.41 -2.19,-12.08 5.82,-23.66 17.9,-25.86zm16.47 24.3c-1.49,9.02 -8.47,16.54 -17.97,18.27 -0.65,0.12 -1.31,0.21 -1.96,0.27 -0.18,-0.07 -0.36,-0.13 -0.54,-0.2 4.75,-3.57 9.91,-7.95 15.08,-12.93 1.88,-1.81 3.68,-3.61 5.39,-5.41z"/>
  <path class="fil1" d="M41.54 9.65c9.84,-7.14 17.95,-10.7 20.34,-8.21 3.64,3.78 -6.87,19.81 -23.48,35.79 -16.61,15.98 -33.03,25.87 -36.68,22.09 -2.45,-2.55 1.51,-10.64 9.42,-20.53 0.72,1.38 1.34,2.41 2.18,3.7 -0.01,0.02 0.03,0 0.02,0.02 -2.74,4.12 -3.87,7.19 -2.79,8.32 2.29,2.38 13.67,-4.84 25.41,-16.13 11.73,-11.3 19.39,-22.39 17.09,-24.77 -1.03,-1.07 -3.95,-0.2 -7.86,2.1 0,0 -0.92,-0.71 -1.78,-1.28 -0.83,-0.56 -1.87,-1.1 -1.87,-1.1z"/>
  <path class="fil5" d="M18.35 28.12c-0.2,1 -1.16,1.65 -2.16,1.46 -1,-0.19 -1.65,-1.16 -1.46,-2.16 0.56,-2.87 1.8,-5.52 3.56,-7.76 1.76,-2.23 4.04,-4.05 6.7,-5.27 0.93,-0.43 2.02,-0.02 2.44,0.9 0.43,0.93 0.02,2.02 -0.9,2.45 -2.12,0.97 -3.95,2.42 -5.35,4.21 -1.4,1.78 -2.39,3.88 -2.83,6.17z"/>
  <path class="fil2" d="M12.43 41.09c-0.2,-0.32 -0.38,-0.63 -0.57,-0.97 -0.03,-0.05 -0.06,-0.11 -0.09,-0.16 -0.16,-0.29 -0.33,-0.59 -0.51,-0.93 -0.04,-0.08 -0.08,-0.16 -0.12,-0.24 -2.01,2.52 -3.77,4.92 -5.23,7.15 0.01,0.01 0.02,0.03 0.03,0.05 -0.01,0.02 0.04,0.01 0.02,0.03 -3.01,4.53 -4.26,7.9 -3.07,9.14 0.2,0.2 0.45,0.34 0.75,0.42 2.02,0.53 6.4,-1.52 11.91,-5.37 -2.46,1.14 -4.24,1.41 -5,0.62 -1.08,-1.13 0.05,-4.2 2.79,-8.32l-0.01 -0.01c-0.01,0 -0.02,0 -0.01,-0.01l-0.03 -0.05c-0.32,-0.49 -0.58,-0.89 -0.82,-1.28 -0.01,-0.02 -0.03,-0.05 -0.04,-0.07z"/>
  <path class="fil2" d="M59.89 5.16c-1.73,7.31 -11.96,21.19 -26.36,35.05 -3.32,3.19 -6.62,6.15 -9.84,8.85 -2.85,2.39 -5.63,4.57 -8.29,6.5 2.45,-1.48 5.12,-3.3 7.92,-5.4 0.17,-0.13 0.34,-0.26 0.51,-0.39 2.31,-1.75 4.71,-3.69 7.15,-5.79 2.44,-2.09 4.93,-4.35 7.42,-6.75 1.88,-1.81 3.68,-3.61 5.39,-5.41 11.5,-12.03 18.95,-23.29 18.81,-28.38 -0.03,-0.85 -0.26,-1.52 -0.72,-2 -0.58,-0.61 -1.5,-0.85 -2.71,-0.78 0.07,0.05 0.13,0.11 0.19,0.17 0.17,0.18 0.31,0.38 0.42,0.6 0.46,0.89 0.48,2.16 0.11,3.73z"/>
 </g>
</svg>
