<?xml version="1.0" encoding="UTF-8"?>
<!DOCTYPE svg PUBLIC "-//W3C//DTD SVG 1.1//EN" "http://www.w3.org/Graphics/SVG/1.1/DTD/svg11.dtd">
<!-- Creator: CorelDRAW -->
<svg xmlns="http://www.w3.org/2000/svg" xml:space="preserve" width="64px" height="64px" version="1.1" style="shape-rendering:geometricPrecision; text-rendering:geometricPrecision; image-rendering:optimizeQuality; fill-rule:evenodd; clip-rule:evenodd"
viewBox="0 0 64 64"
 xmlns:xlink="http://www.w3.org/1999/xlink"
 xmlns:xodm="http://www.corel.com/coreldraw/odm/2003">
 <defs>
  <style type="text/css">
   <![CDATA[
    .fil5 {fill:#2EA1C6}
    .fil4 {fill:#333947}
    .fil8 {fill:#545A6A}
    .fil3 {fill:#545B6B}
    .fil6 {fill:#69C4DE}
    .fil9 {fill:#9096A4}
    .fil12 {fill:#A1A8B2}
    .fil2 {fill:#B9BFCB}
    .fil11 {fill:#D52F23}
    .fil1 {fill:#DBDEE3}
    .fil7 {fill:#EE7D30}
    .fil14 {fill:#F09B0C}
    .fil10 {fill:#F2564A}
    .fil13 {fill:#F9C83D}
    .fil0 {fill:#4F4F4F;fill-rule:nonzero}
   ]]>
  </style>
 </defs>
 <g id="Слой_x0020_1" visibility="hidden">
  <metadata id="CorelCorpID_0Corel-Layer"/>
  <path class="fil0" d="M20.98 45.87l-2.85 -2.85 0 0c-0.67,0.33 -1.78,1.04 -2.63,2.38 -0.85,1.33 -1.34,3.32 -1.6,4.7 1.38,-0.26 3.37,-0.75 4.7,-1.6 1.34,-0.85 2.05,-1.96 2.38,-2.63l0 0zm-5.94 -3.59c-1.04,0.63 -2.27,1.66 -3.23,3.26 -1.59,2.65 -2.18,6.88 -2.38,9.03 2.15,-0.21 6.38,-0.79 9.03,-2.38 1.6,-0.96 2.63,-2.19 3.26,-3.23 -0.48,0.54 -1.08,1.08 -1.83,1.55 -2.72,1.74 -7.26,2.2 -7.28,2.2 -0.66,0.06 -1.24,-0.41 -1.31,-1.07 -0.01,-0.1 -0.01,-0.18 0,-0.28 0.03,-0.32 0.51,-4.63 2.19,-7.25 0.47,-0.75 1.01,-1.35 1.55,-1.83l0 0 0 0zm-0.23 -2.58c-0.46,-0.48 -0.46,-1.22 0.01,-1.69 0.08,-0.09 0.17,-0.15 0.27,-0.21l1.86 -1.09 -0.27 -0.27c-0.26,-0.26 -0.38,-0.6 -0.35,-0.94l-9.36 -0.14c-0.67,-0.01 -1.19,-0.55 -1.18,-1.22 0.01,-0.32 0.14,-0.61 0.35,-0.82l0 -0.01 10.13 -10.12c0.25,-0.26 0.61,-0.38 0.95,-0.34l7.67 0.02c3.17,-3.98 6.91,-8.05 10.67,-10.7 3.2,-2.26 6.61,-3.71 9.75,-4.66 0.05,-0.01 0.11,-0.03 0.17,-0.05 3.8,-1.13 7.19,-1.5 9.3,-1.61l0.04 -0.01 0.22 -0.01 0.01 0 0.19 -0.01 0.08 0 0.03 0 0.13 -0.01 0.01 0 0.14 0 0.02 0 0.1 -0.01 0.02 0c0.3,-0.01 0.54,-0.01 0.74,-0.01l0.08 0 0.04 0 0.04 0 0.06 0 0.01 0 0.06 0 0.06 0 0.04 0 0 0 0.04 0.01 0.02 0 0.02 0 0.03 0 0 0 0.02 0 0 0 0.01 0 0.01 0 0.02 0 0.03 0 0.03 0.01 0.03 0 0.03 0 0.03 0.01 0.03 0 0.02 0.01 0.03 0.01 0.03 0 0.03 0.01 0.02 0.01 0.03 0.01 0.03 0.01 0.02 0 0.02 0.01 0.03 0.02 0.03 0.01 0.02 0.01 0.03 0.02 0.02 0.01 0.02 0.02 0.02 0.01 0.03 0.02 0.02 0.02 0.02 0.01 0.03 0.02 0.02 0.01 0.02 0.02 0.02 0.02 0.02 0.02 0.02 0.02 0.02 0.02 0.02 0.02 0.01 0.02 0 0 0.02 0.02 0.02 0.03 0.02 0.01 0 0 0.02 0.02 0.01 0.03 0.02 0.02 0 0.02 0.02 0.03 0 0 0.01 0.03 0.02 0.02 0.01 0.02 0.01 0.02 0.02 0.03 0.01 0.03 0.01 0.02 0.01 0.03 0.01 0.03 0 0 0.01 0.03 0 0 0.01 0.02 0 0 0 0.02 0.01 0.03 0 0 0.01 0.03 0 0.03 0 0 0 0.03 0 0 0 0.02 0 0.03 0 0 0.01 0.03 0 0 0 0.03 0 0 0 0.03 0 0 0 0.01 0 0 0 0.03 0 0 0 0.02 0 0.02 0 0.02 0.01 0.12 0 0.03 0 0.06 0 0c0,0.06 0,0.14 0,0.22l0 0 0 0 0 0.1 0 0.04 0 0.05 0 0.1 0 0.01c0,0.09 -0.01,0.2 -0.01,0.31l0 0.02 0 0.01 0 0.01 0 0.15 -0.01 0.02 0 0.08 0 0.13 0 0c-0.07,2.03 -0.4,5.8 -1.66,10.07 -0.01,0.02 -0.02,0.05 -0.04,0.08 -0.94,3.15 -2.4,6.56 -4.66,9.77 -2.64,3.77 -6.71,7.51 -10.69,10.66l0.02 7.69c0.03,0.34 -0.09,0.69 -0.35,0.95l-10.12 10.12 -0.01 0c-0.21,0.21 -0.5,0.35 -0.82,0.36 -0.67,0 -1.21,-0.52 -1.22,-1.19l-0.14 -9.36c-0.34,0.03 -0.69,-0.09 -0.93,-0.34l0 0 -0.28 -0.28 -1.11 1.89c-0.33,0.57 -1.06,0.77 -1.64,0.44 -0.09,-0.06 -0.16,-0.12 -0.23,-0.18 -0.73,1.48 -2.12,3.54 -4.62,5.04 -4.19,2.53 -11.48,2.82 -11.5,2.82 -0.65,0.04 -1.21,-0.47 -1.24,-1.13 -0.01,-0.04 0,-0.08 0,-0.12l0 0c0.01,-0.31 0.34,-7.39 2.82,-11.49 1.5,-2.51 3.56,-3.9 5.04,-4.62l0.01 0.01 0 0zm2.99 -0.4l0 0 1.48 1.46 1.98 1.98 3.44 3.46 0.2 0.18 0.63 -1.08 -6.83 -6.83 -1.08 0.63 0.18 0.2zm-0.17 -6.17c1.06,-1.65 2.77,-4.27 4.91,-7.19l0.04 -0.04c0.16,-0.22 0.32,-0.43 0.48,-0.65l-5.45 -0.01 -7.77 7.78 7.79 0.11 0 0zm8.85 -8.41c-0.02,0.02 -0.04,0.05 -0.06,0.08l0 0c-1.36,1.74 -2.59,3.42 -3.63,4.9 -1.52,2.19 -2.75,4.09 -3.49,5.27l-0.02 0.05c-0.09,0.13 -0.17,0.27 -0.24,0.39l0.7 0.7 0.01 0.01 8.13 8.13 0 0 0.71 0.71c0.12,-0.07 0.26,-0.15 0.4,-0.24l0.04 -0.02c1.18,-0.74 3.08,-1.97 5.26,-3.49 1.49,-1.04 3.17,-2.27 4.91,-3.63l0 0c0.03,-0.02 0.05,-0.04 0.08,-0.06 3.93,-3.09 8,-6.78 10.6,-10.46 1.94,-2.77 3.25,-5.72 4.14,-8.48l-8.6 -8.6c-2.76,0.89 -5.71,2.19 -8.48,4.14 -3.68,2.6 -7.37,6.66 -10.46,10.6l0 0 0 0zm28.27 -8.8c0.82,-3.38 1.01,-6.23 1.06,-7.73 -1.5,0.05 -4.35,0.24 -7.73,1.06l6.67 6.67 0 0zm-8.07 1.4c1.39,1.39 2.08,3.22 2.09,5.05 0.01,1.82 -0.68,3.65 -2.06,5.03 -1.4,1.39 -3.21,2.08 -5.04,2.07 -1.82,0 -3.65,-0.71 -5.04,-2.1 -1.39,-1.39 -2.1,-3.22 -2.1,-5.04 -0.01,-1.83 0.68,-3.64 2.07,-5.03 1.38,-1.39 3.21,-2.08 5.03,-2.07 1.83,0.01 3.66,0.7 5.05,2.09l0 0 0 0zm-0.3 5.05c0,-1.21 -0.48,-2.42 -1.4,-3.35 -0.93,-0.93 -2.14,-1.4 -3.35,-1.4 -1.21,-0.01 -2.41,0.46 -3.33,1.37 -0.93,0.92 -1.39,2.13 -1.39,3.34 0.01,1.2 0.48,2.41 1.41,3.35 0.94,0.93 2.15,1.4 3.35,1.4 1.21,0.01 2.42,-0.45 3.34,-1.37 0.91,-0.93 1.37,-2.13 1.37,-3.34l0 0zm-8.42 19.15c-2.78,2.04 -5.28,3.7 -6.93,4.75l-0.06 0.03 -0.06 0.03 -0.04 0.04 0.11 7.79 7.78 -7.77 -0.01 -5.45c-0.25,0.18 -0.49,0.36 -0.74,0.55l-0.05 0.03 0 0z"/>
 </g>
 <g id="Слой_x0020_2">
  <metadata id="CorelCorpID_1Corel-Layer"/>
  <path class="fil1" d="M32 61.32l-26.3 0c-0.57,0 -1.03,-0.46 -1.03,-1.03l0 -12.79 -0.82 0c-0.57,0 -1.03,-0.46 -1.03,-1.03l0 -3.13 29.18 0 0 17.98z"/>
  <path class="fil2" d="M59.96 47.5l-0.82 0 0 12.79c0,0.57 -0.46,1.03 -1.03,1.03l-26.11 0 0 -17.98 28.99 0 0 3.13c0,0.57 -0.46,1.03 -1.03,1.03z"/>
  <path class="fil3" d="M26 51.11l6 0 0 8.59 -6 0c-0.95,0 -1.72,-0.78 -1.72,-1.73l0 -5.13c0,-0.95 0.77,-1.73 1.72,-1.73z"/>
  <path class="fil4" d="M32 59.7l0 -8.59 5.34 0c0.94,0 1.71,0.78 1.71,1.73l0 5.13c0,0.95 -0.77,1.73 -1.71,1.73l-5.34 0z"/>
  <path class="fil3" d="M5.02 43.34l3.21 0 0 -28.08c-0.49,0.29 -1.06,0.45 -1.66,0.45l-0.03 0c-0.55,0 -1.07,-0.13 -1.52,-0.37l0 28z"/>
  <rect class="fil5" x="20.74" y="34.14" width="8.51" height="9.19"/>
  <rect class="fil6" x="19.86" y="31.92" width="10.28" height="2.23" rx="5.14" ry="1.03"/>
  <path class="fil4" d="M34.33 43.34l9.37 0 0 -11.2c0,-0.88 -0.72,-1.6 -1.6,-1.6l-6.18 0c-0.87,0 -1.59,0.72 -1.59,1.59l0 11.21z"/>
  <path class="fil7" d="M44.77 43.34l7.42 0 0 -8.87c0,-0.7 -0.57,-1.27 -1.27,-1.27l-4.89 0c-0.69,0 -1.26,0.57 -1.26,1.26l0 8.88z"/>
  <rect class="fil8" x="11.21" y="36.49" width="6.34" height="6.85"/>
  <rect class="fil9" x="10.56" y="34.84" width="7.65" height="1.66" rx="3.83" ry="0.77"/>
  <path class="fil8" d="M55.68 43.34l3.21 0 0 -28.11c-0.49,0.31 -1.06,0.48 -1.67,0.48l0 0c-0.56,0 -1.09,-0.15 -1.54,-0.4l0 28.03z"/>
  <path class="fil4" d="M57.26 15.71l0 27.63 1.63 0 0 -28.11c-0.48,0.3 -1.03,0.47 -1.63,0.48z"/>
  <path class="fil4" d="M8.23 43.34l0 -28.08c-0.47,0.28 -1.02,0.44 -1.61,0.45l0 27.63 1.61 0z"/>
  <polygon class="fil1" points="9.89,11.12 14.89,2.59 10.02,2.59 3.22,11.12 "/>
  <polygon class="fil1" points="22.59,11.12 24.89,2.59 19.82,2.59 16.18,11.12 "/>
  <polygon class="fil1" points="35.19,11.12 34.4,2.59 29.44,2.59 28.83,11.12 "/>
  <polygon class="fil1" points="41.45,11.12 47.88,11.12 44.26,2.59 39.06,2.59 "/>
  <polygon class="fil1" points="49.14,2.59 54.05,11.12 60.39,11.12 54.41,2.59 "/>
  <path class="fil2" d="M8.23 15.26c0.99,-0.58 1.66,-1.65 1.66,-2.87l0 -1.27 -6.67 0 0 1.27c0,1.28 0.73,2.39 1.8,2.95 0.45,0.24 0.97,0.37 1.52,0.37l0.03 0c0.02,0 0.03,0 0.05,0 0.59,-0.01 1.14,-0.17 1.61,-0.45z"/>
  <path class="fil2" d="M19.39 15.71c1.73,0 3.16,-1.39 3.2,-3.12 0,-0.03 0,-0.06 0,-0.09l0 -1.38 -6.41 0 0 1.38c0,0.02 0,0.05 0,0.07 0.03,1.73 1.46,3.14 3.21,3.14z"/>
  <path class="fil2" d="M32.02 15.71c1.72,0 3.14,-1.4 3.18,-3.12 0,-0.02 0,-0.04 0,-0.06l-0.01 -1.41 -6.36 0 0 1.41c0,0.02 0,0.04 0,0.06 0.04,1.72 1.46,3.12 3.19,3.12z"/>
  <path class="fil2" d="M41.44 12.49l0 0.1c0,-0.03 0,-0.07 0,-0.1zm0.01 -1.37l-0.01 1.37 0.01 -1.37zm3.21 4.59c1.77,0 3.22,-1.45 3.22,-3.22l0 -1.37 -6.43 0 -6.26 0 0.01 1.41c0,0.02 0,0.04 0,0.06 0,1.72 1.4,3.12 3.12,3.12 1.71,0 3.12,-1.4 3.12,-3.12 0.05,1.73 1.48,3.12 3.22,3.12z"/>
  <path class="fil2" d="M54.05 12.63c0.03,1.14 0.68,2.15 1.63,2.68 0.45,0.25 0.98,0.4 1.54,0.4 0.01,0 0.03,0 0.04,0 0.6,-0.01 1.15,-0.18 1.63,-0.48 0.9,-0.56 1.5,-1.56 1.5,-2.69l0 -1.42 -6.34 0 0 1.42c0,0.03 0,0.06 0,0.09z"/>
  <polygon class="fil10" points="16.18,11.12 19.82,2.59 14.89,2.59 9.89,11.12 "/>
  <polygon class="fil10" points="28.83,11.12 29.44,2.59 24.89,2.59 22.59,11.12 "/>
  <polygon class="fil10" points="35.19,11.12 41.45,11.12 39.06,2.59 34.4,2.59 "/>
  <polygon class="fil10" points="47.88,11.12 54.05,11.12 49.14,2.59 44.26,2.59 "/>
  <path class="fil11" d="M13.03 15.71c1.73,0 3.15,-1.41 3.15,-3.14l0 -0.07 0 -1.38 -6.29 0 0 1.27 0 0.18c0,1.73 1.42,3.14 3.14,3.14z"/>
  <path class="fil11" d="M25.71 15.71c1.72,0 3.12,-1.4 3.12,-3.12l0 -0.06 0 -1.41 -6.24 0 0 1.38 0 0.09c0,1.72 1.41,3.12 3.12,3.12z"/>
  <path class="fil11" d="M35.2 12.53c0,0.02 0,0.04 0,0.06l0 -0.06zm3.12 3.18c1.71,0 3.12,-1.4 3.12,-3.12l0 -0.1 0.01 -1.37 -6.26 0 0.01 1.41c0,0.02 0,0.04 0,0.06 0,1.72 1.4,3.12 3.12,3.12z"/>
  <path class="fil11" d="M47.88 12.63c0,1.69 1.39,3.08 3.09,3.08 1.69,0 3.08,-1.39 3.08,-3.08l0 -0.09 0 -1.42 -6.17 0 0 1.37 0 0.14z"/>
  <rect class="fil2" x="4.67" y="47.5" width="27.33" height="2.21"/>
  <rect class="fil12" x="32" y="47.5" width="27.14" height="2.21"/>
  <g id="_2474250775200">
   <path class="fil13" d="M16.69 20.11c0,0 0.38,1.66 0.95,2.23 0.57,0.57 2.23,0.95 2.23,0.95 0,0 -1.66,0.39 -2.23,0.96 -0.57,0.57 -0.95,2.22 -0.95,2.22 0,0 -0.39,-1.65 -0.96,-2.22 -0.57,-0.57 -2.22,-0.96 -2.22,-0.96 0,0 1.65,-0.38 2.22,-0.95 0.57,-0.57 0.96,-2.23 0.96,-2.23z"/>
   <path class="fil13" d="M29.84 24.27c0,0 0.27,1.18 0.68,1.59 0.41,0.41 1.59,0.68 1.59,0.68 0,0 -1.18,0.28 -1.59,0.69 -0.41,0.4 -0.68,1.59 -0.68,1.59 0,0 -0.28,-1.19 -0.68,-1.59 -0.41,-0.41 -1.6,-0.69 -1.6,-0.69 0,0 1.19,-0.27 1.6,-0.68 0.4,-0.41 0.68,-1.59 0.68,-1.59z"/>
   <path class="fil14" d="M46.15 19.58c0,0 0.44,1.92 1.11,2.58 0.66,0.67 2.59,1.11 2.59,1.11 0,0 -1.93,0.45 -2.59,1.11 -0.67,0.67 -1.11,2.59 -1.11,2.59 0,0 -0.45,-1.92 -1.11,-2.59 -0.67,-0.66 -2.59,-1.11 -2.59,-1.11 0,0 1.92,-0.44 2.59,-1.11 0.66,-0.66 1.11,-2.58 1.11,-2.58z"/>
  </g>
 </g>
</svg>
