<?xml version="1.0" encoding="UTF-8"?>
<!DOCTYPE svg PUBLIC "-//W3C//DTD SVG 1.1//EN" "http://www.w3.org/Graphics/SVG/1.1/DTD/svg11.dtd">
<!-- Creator: CorelDRAW -->
<svg xmlns="http://www.w3.org/2000/svg" xml:space="preserve" width="64px" height="64px" version="1.1" style="shape-rendering:geometricPrecision; text-rendering:geometricPrecision; image-rendering:optimizeQuality; fill-rule:evenodd; clip-rule:evenodd"
viewBox="0 0 64 64"
 xmlns:xlink="http://www.w3.org/1999/xlink"
 xmlns:xodm="http://www.corel.com/coreldraw/odm/2003">
 <defs>
  <style type="text/css">
   <![CDATA[
    .str0 {stroke:#8A8A8A;stroke-width:2.83;stroke-linejoin:round;stroke-miterlimit:22.9256}
    .str1 {stroke:#8A8A8A;stroke-width:2.83;stroke-linecap:round;stroke-miterlimit:22.9256}
    .str2 {stroke:#8A8A8A;stroke-width:2.83;stroke-linecap:round;stroke-linejoin:round;stroke-miterlimit:22.9256}
    .fil3 {fill:none}
    .fil1 {fill:#8A8A8A}
    .fil0 {fill:#4F4F4F;fill-rule:nonzero}
    .fil2 {fill:#8A8A8A;fill-rule:nonzero}
   ]]>
  </style>
 </defs>
 <g id="Слой_x0020_1" visibility="hidden">
  <metadata id="CorelCorpID_0Corel-Layer"/>
  <path class="fil0" d="M20.98 45.87l-2.85 -2.85 0 0c-0.67,0.33 -1.78,1.04 -2.63,2.38 -0.85,1.33 -1.34,3.32 -1.6,4.7 1.38,-0.26 3.37,-0.75 4.7,-1.6 1.34,-0.85 2.05,-1.96 2.38,-2.63l0 0zm-5.94 -3.59c-1.04,0.63 -2.27,1.66 -3.23,3.26 -1.59,2.65 -2.18,6.88 -2.38,9.03 2.15,-0.21 6.38,-0.79 9.03,-2.38 1.6,-0.96 2.63,-2.19 3.26,-3.23 -0.48,0.54 -1.08,1.08 -1.83,1.55 -2.72,1.74 -7.26,2.2 -7.28,2.2 -0.66,0.06 -1.24,-0.41 -1.31,-1.07 -0.01,-0.1 -0.01,-0.18 0,-0.28 0.03,-0.32 0.51,-4.63 2.19,-7.25 0.47,-0.75 1.01,-1.35 1.55,-1.83l0 0 0 0zm-0.23 -2.58c-0.46,-0.48 -0.46,-1.22 0.01,-1.69 0.08,-0.09 0.17,-0.15 0.27,-0.21l1.86 -1.09 -0.27 -0.27c-0.26,-0.26 -0.38,-0.6 -0.35,-0.94l-9.36 -0.14c-0.67,-0.01 -1.19,-0.55 -1.18,-1.22 0.01,-0.32 0.14,-0.61 0.35,-0.82l0 -0.01 10.13 -10.12c0.25,-0.26 0.61,-0.38 0.95,-0.34l7.67 0.02c3.17,-3.98 6.91,-8.05 10.67,-10.7 3.2,-2.26 6.61,-3.71 9.75,-4.66 0.05,-0.01 0.11,-0.03 0.17,-0.05 3.8,-1.13 7.19,-1.5 9.3,-1.61l0.04 -0.01 0.22 -0.01 0.01 0 0.19 -0.01 0.08 0 0.03 0 0.13 -0.01 0.01 0 0.14 0 0.02 0 0.1 -0.01 0.02 0c0.3,-0.01 0.54,-0.01 0.74,-0.01l0.08 0 0.04 0 0.04 0 0.06 0 0.01 0 0.06 0 0.06 0 0.04 0 0 0 0.04 0.01 0.02 0 0.02 0 0.03 0 0 0 0.02 0 0 0 0.01 0 0.01 0 0.02 0 0.03 0 0.03 0.01 0.03 0 0.03 0 0.03 0.01 0.03 0 0.02 0.01 0.03 0.01 0.03 0 0.03 0.01 0.02 0.01 0.03 0.01 0.03 0.01 0.02 0 0.02 0.01 0.03 0.02 0.03 0.01 0.02 0.01 0.03 0.02 0.02 0.01 0.02 0.02 0.02 0.01 0.03 0.02 0.02 0.02 0.02 0.01 0.03 0.02 0.02 0.01 0.02 0.02 0.02 0.02 0.02 0.02 0.02 0.02 0.02 0.02 0.02 0.02 0.01 0.02 0 0 0.02 0.02 0.02 0.03 0.02 0.01 0 0 0.02 0.02 0.01 0.03 0.02 0.02 0 0.02 0.02 0.03 0 0 0.01 0.03 0.02 0.02 0.01 0.02 0.01 0.02 0.02 0.03 0.01 0.03 0.01 0.02 0.01 0.03 0.01 0.03 0 0 0.01 0.03 0 0 0.01 0.02 0 0 0 0.02 0.01 0.03 0 0 0.01 0.03 0 0.03 0 0 0 0.03 0 0 0 0.02 0 0.03 0 0 0.01 0.03 0 0 0 0.03 0 0 0 0.03 0 0 0 0.01 0 0 0 0.03 0 0 0 0.02 0 0.02 0 0.02 0.01 0.12 0 0.03 0 0.06 0 0c0,0.06 0,0.14 0,0.22l0 0 0 0 0 0.1 0 0.04 0 0.05 0 0.1 0 0.01c0,0.09 -0.01,0.2 -0.01,0.31l0 0.02 0 0.01 0 0.01 0 0.15 -0.01 0.02 0 0.08 0 0.13 0 0c-0.07,2.03 -0.4,5.8 -1.66,10.07 -0.01,0.02 -0.02,0.05 -0.04,0.08 -0.94,3.15 -2.4,6.56 -4.66,9.77 -2.64,3.77 -6.71,7.51 -10.69,10.66l0.02 7.69c0.03,0.34 -0.09,0.69 -0.35,0.95l-10.12 10.12 -0.01 0c-0.21,0.21 -0.5,0.35 -0.82,0.36 -0.67,0 -1.21,-0.52 -1.22,-1.19l-0.14 -9.36c-0.34,0.03 -0.69,-0.09 -0.93,-0.34l0 0 -0.28 -0.28 -1.11 1.89c-0.33,0.57 -1.06,0.77 -1.64,0.44 -0.09,-0.06 -0.16,-0.12 -0.23,-0.18 -0.73,1.48 -2.12,3.54 -4.62,5.04 -4.19,2.53 -11.48,2.82 -11.5,2.82 -0.65,0.04 -1.21,-0.47 -1.24,-1.13 -0.01,-0.04 0,-0.08 0,-0.12l0 0c0.01,-0.31 0.34,-7.39 2.82,-11.49 1.5,-2.51 3.56,-3.9 5.04,-4.62l0.01 0.01 0 0zm2.99 -0.4l0 0 1.48 1.46 1.98 1.98 3.44 3.46 0.2 0.18 0.63 -1.08 -6.83 -6.83 -1.08 0.63 0.18 0.2zm-0.17 -6.17c1.06,-1.65 2.77,-4.27 4.91,-7.19l0.04 -0.04c0.16,-0.22 0.32,-0.43 0.48,-0.65l-5.45 -0.01 -7.77 7.78 7.79 0.11 0 0zm8.85 -8.41c-0.02,0.02 -0.04,0.05 -0.06,0.08l0 0c-1.36,1.74 -2.59,3.42 -3.63,4.9 -1.52,2.19 -2.75,4.09 -3.49,5.27l-0.02 0.05c-0.09,0.13 -0.17,0.27 -0.24,0.39l0.7 0.7 0.01 0.01 8.13 8.13 0 0 0.71 0.71c0.12,-0.07 0.26,-0.15 0.4,-0.24l0.04 -0.02c1.18,-0.74 3.08,-1.97 5.26,-3.49 1.49,-1.04 3.17,-2.27 4.91,-3.63l0 0c0.03,-0.02 0.05,-0.04 0.08,-0.06 3.93,-3.09 8,-6.78 10.6,-10.46 1.94,-2.77 3.25,-5.72 4.14,-8.48l-8.6 -8.6c-2.76,0.89 -5.71,2.19 -8.48,4.14 -3.68,2.6 -7.37,6.66 -10.46,10.6l0 0 0 0zm28.27 -8.8c0.82,-3.38 1.01,-6.23 1.06,-7.73 -1.5,0.05 -4.35,0.24 -7.73,1.06l6.67 6.67 0 0zm-8.07 1.4c1.39,1.39 2.08,3.22 2.09,5.05 0.01,1.82 -0.68,3.65 -2.06,5.03 -1.4,1.39 -3.21,2.08 -5.04,2.07 -1.82,0 -3.65,-0.71 -5.04,-2.1 -1.39,-1.39 -2.1,-3.22 -2.1,-5.04 -0.01,-1.83 0.68,-3.64 2.07,-5.03 1.38,-1.39 3.21,-2.08 5.03,-2.07 1.83,0.01 3.66,0.7 5.05,2.09l0 0 0 0zm-0.3 5.05c0,-1.21 -0.48,-2.42 -1.4,-3.35 -0.93,-0.93 -2.14,-1.4 -3.35,-1.4 -1.21,-0.01 -2.41,0.46 -3.33,1.37 -0.93,0.92 -1.39,2.13 -1.39,3.34 0.01,1.2 0.48,2.41 1.41,3.35 0.94,0.93 2.15,1.4 3.35,1.4 1.21,0.01 2.42,-0.45 3.34,-1.37 0.91,-0.93 1.37,-2.13 1.37,-3.34l0 0zm-8.42 19.15c-2.78,2.04 -5.28,3.7 -6.93,4.75l-0.06 0.03 -0.06 0.03 -0.04 0.04 0.11 7.79 7.78 -7.77 -0.01 -5.45c-0.25,0.18 -0.49,0.36 -0.74,0.55l-0.05 0.03 0 0z"/>
 </g>
 <g id="Слой_x0020_2">
  <metadata id="CorelCorpID_1Corel-Layer"/>
  <path class="fil1" d="M17.87 14.39c0,1.57 1.28,2.84 2.84,2.84 1.56,0 2.84,-1.27 2.84,-2.84l0 -1.12 1.94 -7.64 -4.54 0 -3.08 7.64 0 1.12zm-1.32 -8.76l-4.13 0 -6.02 7.54 0 1.12c0,1.62 1.33,2.94 2.94,2.94l0.03 0c1.61,0 2.94,-1.32 2.94,-2.93l0 -1.03 4.24 -7.64zm12.52 8.79c0,1.55 1.27,2.81 2.82,2.81 1.53,0 2.78,-1.23 2.81,-2.76l-0.01 -1.2 -0.67 -7.64 -4.44 0 -0.51 7.64 0 1.15zm11.16 0c0.01,1.55 1.29,2.81 2.85,2.81 1.56,0 2.85,-1.28 2.85,-2.85l0 -1.11 -3.07 -7.64 -4.65 0 2.02 7.64 0 1.15zm11.16 0.01c0,1.54 1.26,2.8 2.8,2.8 1.54,0 2.81,-1.26 2.81,-2.8l0 -1.26 -5.3 -7.54 -4.48 0 4.17 7.64 0 1.16zm-36.3 5.19c-1.04,0 -2.02,-0.32 -2.83,-0.86 -0.84,0.54 -1.83,0.86 -2.89,0.86l-0.03 0c-1.45,0 -2.78,-0.6 -3.75,-1.56l-0.01 -0.02c-0.97,-0.96 -1.57,-2.29 -1.57,-3.75l0 -1.12 0.01 0c0,-0.52 0.17,-1.04 0.52,-1.48l5.92 -7.42c0.43,-0.62 1.15,-1.02 1.96,-1.02l39.28 0 0 0.01c0.75,0 1.49,0.35 1.95,1.01l5.17 7.36c0.35,0.42 0.56,0.95 0.56,1.54l0 1.26c0,1.43 -0.58,2.73 -1.52,3.66 -0.94,0.94 -2.24,1.53 -3.67,1.53 -1.02,0 -1.97,-0.3 -2.78,-0.81 -0.79,0.51 -1.74,0.81 -2.75,0.81 -1.02,0 -1.98,-0.31 -2.78,-0.83 -0.81,0.52 -1.78,0.83 -2.8,0.83 -1.04,0 -2,-0.31 -2.82,-0.83 -0.8,0.52 -1.77,0.83 -2.8,0.83 -1.02,0 -1.97,-0.31 -2.78,-0.83 -0.81,0.52 -1.77,0.83 -2.79,0.83 -1.03,0 -1.99,-0.3 -2.8,-0.82 -0.8,0.52 -1.76,0.82 -2.78,0.82 -1.02,0 -1.98,-0.31 -2.78,-0.83 -0.82,0.52 -1.78,0.83 -2.82,0.83 -1.04,0 -2,-0.31 -2.82,-0.83 -0.81,0.52 -1.77,0.83 -2.8,0.83z"/>
  <path class="fil1" d="M6.21 42.94l2.96 0 0 -24.8c-0.45,0.26 -0.98,0.4 -1.54,0.4l-0.02 0c-0.5,0 -0.98,-0.12 -1.4,-0.33l0 24.73z"/>
  <path class="fil1" d="M30.2 34.98c0.52,-0.11 0.91,-0.57 0.91,-1.12 0,-0.63 -0.52,-1.15 -1.15,-1.15l-8.26 0c-0.63,0 -1.14,0.52 -1.14,1.15 0,0.54 0.39,1.01 0.9,1.12l0 9.26 8.74 0 0 -9.26zm-17.93 9.26l6.16 0 0.01 -7.03c0.47,0 0.85,-0.38 0.85,-0.85 0,-0.47 -0.38,-0.85 -0.85,-0.85l-6.15 0c-0.47,0 -0.85,0.38 -0.85,0.85 0,0.47 0.38,0.85 0.85,0.85l-0.02 7.03zm15.17 -8.77l-3.22 0 0 6.01 3.22 0 0 -6.01z"/>
  <path class="fil2" d="M36.32 41.64l6.03 0 0 -9.02c0,-0.04 -0.02,-0.09 -0.05,-0.12 -0.03,-0.03 -0.08,-0.05 -0.12,-0.05l-5.69 0c-0.04,0 -0.09,0.02 -0.12,0.04 -0.03,0.04 -0.05,0.08 -0.05,0.12l0 9.03zm7.33 2.6l-9.92 0 0 -11.63c0,-0.75 0.31,-1.44 0.81,-1.94l0 -0.01c0.5,-0.5 1.19,-0.81 1.95,-0.81l5.69 0c0.76,0 1.46,0.31 1.96,0.81 0.5,0.51 0.81,1.2 0.81,1.96l0 11.62 -1.3 0z"/>
  <path class="fil2" d="M44.95 41.64l4.24 0 0 -6.74 -4.24 0 0 6.74zm5.54 2.6l-8.14 0 0 -9.48c0,-0.67 0.28,-1.29 0.73,-1.74 0.44,-0.44 1.06,-0.72 1.73,-0.72l4.51 0c0.68,0 1.29,0.28 1.74,0.72 0.45,0.45 0.73,1.07 0.73,1.75l0 9.47 -1.3 0z"/>
  <path class="fil1" d="M54.53 42.94l2.96 0 0 -25.46c-0.45,0.28 -0.98,0.44 -1.54,0.44l0 0c-0.51,0 -1,-0.13 -1.42,-0.37l0 25.39z"/>
  <path class="fil1" d="M17.77 21.54c0,0 0.36,1.52 0.88,2.05 0.53,0.53 2.05,0.88 2.05,0.88 0,0 -1.52,0.35 -2.05,0.88 -0.52,0.52 -0.88,2.05 -0.88,2.05 0,0 -0.35,-1.53 -0.88,-2.05 -0.52,-0.53 -2.05,-0.88 -2.05,-0.88 0,0 1.53,-0.35 2.05,-0.88 0.53,-0.53 0.88,-2.05 0.88,-2.05z"/>
  <path class="fil1" d="M29.89 25.37c0,0 0.25,1.09 0.63,1.47 0.37,0.37 1.46,0.62 1.46,0.62 0,0 -1.09,0.26 -1.46,0.63 -0.38,0.38 -0.63,1.47 -0.63,1.47 0,0 -0.25,-1.09 -0.63,-1.47 -0.38,-0.37 -1.47,-0.63 -1.47,-0.63 0,0 1.09,-0.25 1.47,-0.62 0.38,-0.38 0.63,-1.47 0.63,-1.47z"/>
  <path class="fil1" d="M44.91 21.05c0,0 0.41,1.77 1.03,2.38 0.61,0.61 2.38,1.02 2.38,1.02 0,0 -1.77,0.41 -2.38,1.02 -0.62,0.62 -1.03,2.39 -1.03,2.39 0,0 -0.41,-1.77 -1.02,-2.39 -0.61,-0.61 -2.38,-1.02 -2.38,-1.02 0,0 1.77,-0.41 2.38,-1.02 0.61,-0.61 1.02,-2.38 1.02,-2.38z"/>
  <line class="fil3" x1="6.7" y1="46.77" x2="56.88" y2= "46.77" />
  <path class="fil3 str0" d="M25.79 47.63l6.19 0 5.51 0c0.97,0 1.77,0.61 1.77,1.36l0 5.21c0,0.74 -0.8,1.35 -1.77,1.35l-5.51 0 -6.19 0c-0.98,0 -1.77,-0.61 -1.77,-1.35l0 -5.21c0,-0.75 0.79,-1.36 1.77,-1.36z"/>
  <line class="fil3 str1" x1="5.02" y1="42.94" x2="58.36" y2= "42.94" />
  <path class="fil3 str2" d="M54.95 59.87c0.84,0 1.53,-0.68 1.53,-1.53l0 -14.19m-50.01 3.19l0 11c0,0.84 0.69,1.53 1.53,1.53l46.95 0"/>
 </g>
</svg>
