<?xml version="1.0" encoding="UTF-8"?>
<!DOCTYPE svg PUBLIC "-//W3C//DTD SVG 1.1//EN" "http://www.w3.org/Graphics/SVG/1.1/DTD/svg11.dtd">
<!-- Creator: CorelDRAW -->
<svg xmlns="http://www.w3.org/2000/svg" xml:space="preserve" width="64px" height="64px" version="1.1" style="shape-rendering:geometricPrecision; text-rendering:geometricPrecision; image-rendering:optimizeQuality; fill-rule:evenodd; clip-rule:evenodd"
viewBox="0 0 64 64"
 xmlns:xlink="http://www.w3.org/1999/xlink"
 xmlns:xodm="http://www.corel.com/coreldraw/odm/2003">
 <defs>
  <style type="text/css">
   <![CDATA[
    .fil3 {fill:#1A202E}
    .fil4 {fill:#2A303E}
    .fil2 {fill:#333A4A}
    .fil7 {fill:#343A4A}
    .fil9 {fill:#363C4C}
    .fil10 {fill:#404757}
    .fil8 {fill:#48505D}
    .fil1 {fill:#6F88AB}
    .fil6 {fill:#7D8391}
    .fil5 {fill:#8AA9D4}
    .fil0 {fill:#4F4F4F;fill-rule:nonzero}
   ]]>
  </style>
 </defs>
 <g id="Слой_x0020_1" visibility="hidden">
  <metadata id="CorelCorpID_0Corel-Layer"/>
  <path class="fil0" d="M20.43 46.56l-2.99 -2.99 0 0c-0.71,0.35 -1.87,1.09 -2.76,2.5 -0.9,1.4 -1.41,3.49 -1.68,4.93 1.44,-0.27 3.53,-0.78 4.93,-1.68 1.41,-0.89 2.15,-2.05 2.5,-2.76zm-6.24 -3.77c-1.09,0.67 -2.38,1.75 -3.39,3.43 -1.67,2.78 -2.29,7.22 -2.5,9.48 2.26,-0.22 6.7,-0.83 9.48,-2.5 1.68,-1.01 2.76,-2.3 3.43,-3.39 -0.51,0.56 -1.14,1.13 -1.93,1.63 -2.85,1.82 -7.62,2.3 -7.64,2.3 -0.69,0.07 -1.3,-0.43 -1.38,-1.12 -0.01,-0.1 -0.01,-0.19 0,-0.29 0.04,-0.34 0.54,-4.86 2.3,-7.61 0.5,-0.79 1.07,-1.42 1.63,-1.93zm-0.24 -2.71c-0.48,-0.5 -0.48,-1.28 0.01,-1.77 0.09,-0.09 0.18,-0.16 0.29,-0.22l1.95 -1.14 -0.29 -0.29c-0.27,-0.27 -0.39,-0.63 -0.36,-0.98l-9.83 -0.15c-0.7,-0.01 -1.25,-0.58 -1.24,-1.28 0.01,-0.34 0.15,-0.64 0.37,-0.86l0 -0.01 10.63 -10.63c0.27,-0.27 0.64,-0.4 1,-0.36l8.06 0.02c3.32,-4.18 7.25,-8.45 11.2,-11.23 3.36,-2.37 6.94,-3.9 10.24,-4.89 0.05,-0.02 0.11,-0.04 0.17,-0.06 3.99,-1.18 7.55,-1.57 9.77,-1.69l0.04 -0.01 0.23 -0.01 0.01 0 0.2 -0.01 0.09 0 0.03 0 0.14 -0.01 0.01 0 0.14 0 0.02 0 0.11 -0.01 0.02 0c0.31,-0.01 0.57,-0.01 0.78,-0.01l0.08 0 0.04 0 0.04 0 0.07 0 0.01 0 0.06 0 0.06 0 0.05 0 0 0 0.04 0.01 0.02 0 0.02 0 0.03 0 0 0 0.02 0 0 0 0.01 0 0.01 0 0.03 0 0.03 0 0.03 0.01 0.03 0 0.03 0 0.03 0.01 0.03 0 0.03 0.01 0.03 0.01 0.03 0 0.03 0.01 0.02 0.01 0.03 0.01 0.03 0.01 0.03 0.01 0.02 0.01 0.03 0.02 0.03 0.01 0.02 0.01 0.03 0.02 0.02 0.01 0.03 0.02 0.02 0.01 0.03 0.02 0.02 0.02 0.02 0.01 0.03 0.02 0.02 0.02 0.02 0.02 0.02 0.02 0.03 0.02 0.02 0.02 0.02 0.02 0.02 0.02 0.01 0.02 0 0 0.02 0.02 0.02 0.03 0.02 0.02 0 0 0.02 0.02 0.01 0.03 0.02 0.02 0.01 0.02 0.02 0.03 0 0 0.01 0.03 0.02 0.02 0.01 0.03 0.01 0.02 0.02 0.03 0.01 0.03 0.01 0.02 0.01 0.03 0.01 0.03 0 0 0.01 0.03 0 0 0.01 0.03 0 0 0 0.02 0.01 0.03 0 0 0.01 0.03 0 0.03 0 0 0.01 0.03 0 0 0 0.03 0 0.03 0 0 0.01 0.03 0 0 0 0.03 0 0 0 0.03 0 0 0 0.01 0 0 0 0.03 0 0 0 0.03 0 0.02 0 0.02 0.01 0.12 0 0.03 0 0.07 0 0c0,0.06 0,0.14 0,0.23l0 0 0 0 0 0.1 0 0.05 0 0.05 0 0.1 0 0.01c0,0.1 -0.01,0.21 -0.01,0.33l0 0.02 0 0.01 0 0.01 0 0.16 -0.01 0.02 0 0.08 0 0.14 0 0c-0.08,2.13 -0.42,6.09 -1.75,10.57 -0.01,0.03 -0.02,0.06 -0.04,0.09 -0.99,3.31 -2.52,6.89 -4.89,10.26 -2.78,3.95 -7.05,7.88 -11.23,11.19l0.02 8.07c0.04,0.36 -0.09,0.73 -0.36,1l-10.63 10.63 -0.01 0c-0.22,0.22 -0.53,0.36 -0.86,0.37 -0.7,0.01 -1.27,-0.54 -1.28,-1.24l-0.15 -9.83c-0.36,0.03 -0.72,-0.1 -0.98,-0.36l0 0 -0.29 -0.29 -1.16 1.98c-0.35,0.6 -1.12,0.81 -1.73,0.46 -0.09,-0.06 -0.17,-0.12 -0.24,-0.19 -0.76,1.56 -2.22,3.72 -4.85,5.3 -4.4,2.65 -12.05,2.96 -12.07,2.96 -0.69,0.04 -1.28,-0.5 -1.31,-1.19 -0.01,-0.04 0,-0.08 0,-0.12l0 -0.01c0.01,-0.32 0.36,-7.75 2.96,-12.06 1.58,-2.63 3.74,-4.09 5.3,-4.85zm3.14 -0.42l0 0 1.55 1.54 2.08 2.08 3.62 3.63 0.2 0.19 0.67 -1.14 -7.17 -7.17 -1.14 0.67 0.19 0.2zm-0.18 -6.47c1.11,-1.74 2.91,-4.49 5.16,-7.55l0.04 -0.05c0.17,-0.23 0.33,-0.45 0.5,-0.68l-5.72 -0.01 -8.16 8.17 8.18 0.12zm9.29 -8.83c-0.02,0.02 -0.04,0.05 -0.06,0.08l0 0c-1.43,1.83 -2.72,3.59 -3.81,5.15 -1.6,2.29 -2.89,4.29 -3.66,5.53l-0.03 0.05c-0.09,0.14 -0.17,0.28 -0.25,0.41l0.74 0.74 0.01 0.01 8.53 8.53 0 0 0.75 0.75c0.13,-0.08 0.27,-0.16 0.42,-0.25l0.04 -0.03c1.24,-0.77 3.24,-2.06 5.53,-3.66 1.56,-1.09 3.32,-2.38 5.15,-3.81l0 0c0.03,-0.02 0.05,-0.04 0.08,-0.06 4.13,-3.25 8.4,-7.12 11.13,-10.99 2.04,-2.91 3.42,-6 4.35,-8.9l-9.03 -9.03c-2.9,0.93 -5.99,2.3 -8.9,4.35 -3.87,2.73 -7.74,6.99 -10.99,11.13zm29.69 -9.24c0.86,-3.55 1.06,-6.54 1.11,-8.12 -1.58,0.05 -4.57,0.25 -8.12,1.11l7.01 7.01zm-8.48 1.47c1.46,1.46 2.19,3.38 2.2,5.3 0.01,1.91 -0.72,3.83 -2.17,5.28 -1.46,1.46 -3.37,2.18 -5.29,2.17 -1.91,0 -3.83,-0.74 -5.29,-2.2 -1.46,-1.46 -2.2,-3.38 -2.2,-5.29 -0.01,-1.92 0.71,-3.83 2.17,-5.29 1.45,-1.45 3.37,-2.18 5.28,-2.17 1.92,0.01 3.84,0.74 5.3,2.2zm-0.31 5.3c0,-1.27 -0.5,-2.54 -1.47,-3.52 -0.98,-0.98 -2.25,-1.47 -3.52,-1.47 -1.27,-0.01 -2.53,0.48 -3.5,1.44 -0.97,0.97 -1.45,2.24 -1.45,3.51 0.01,1.26 0.5,2.53 1.48,3.51 0.98,0.98 2.25,1.47 3.51,1.47 1.27,0.01 2.54,-0.47 3.51,-1.44 0.96,-0.97 1.44,-2.23 1.44,-3.5zm-8.84 20.11c-2.92,2.14 -5.55,3.88 -7.28,4.98l-0.06 0.03 -0.06 0.04 -0.05 0.04 0.12 8.18 8.17 -8.16 -0.01 -5.72c-0.26,0.19 -0.52,0.38 -0.78,0.57l-0.05 0.04z"/>
 </g>
 <g id="Слой_x0020_2">
  <metadata id="CorelCorpID_1Corel-Layer"/>
  <g id="_2524056590480">
   <path class="fil1" d="M25.8 33.56l4.91 3.02c0.61,0.38 1.42,0.19 1.8,-0.43 0,0 8.8,-14.32 8.8,-14.32l3.52 -5.72c0.38,-0.61 0.19,-1.42 -0.43,-1.8l-4.9 -3.02 -13.7 22.27z"/>
   <rect class="fil2" transform="matrix(1.01222 0.622393 -0.60796 0.988742 42.5832 6.26885)" width="2.77" height="5.08"/>
   <rect class="fil3" transform="matrix(1.01222 0.622393 -0.66896 1.08795 44.3022 3.47321)" width="3.92" height="2.57"/>
   <rect class="fil4" transform="matrix(1.29005 0.793232 -0.802113 1.3045 25.7994 33.5648)" width="2.77" height="5.08"/>
   <path class="fil5" d="M25.8 33.56l-4.91 -3.01c-0.61,-0.38 -0.8,-1.19 -0.43,-1.8l12.33 -20.05c0.37,-0.61 1.18,-0.8 1.8,-0.43l4.91 3.02 -13.7 22.27z"/>
   <rect class="fil6" transform="matrix(-1.01222 -0.622393 -0.60796 0.988742 42.5832 6.26885)" width="2.77" height="5.08"/>
   <rect class="fil7" transform="matrix(-1.01222 -0.622393 -0.66896 1.08795 44.3022 3.47321)" width="3.92" height="2.57"/>
   <rect class="fil8" transform="matrix(-1.29005 -0.793232 -0.802113 1.3045 25.7994 33.5648)" width="2.77" height="5.08"/>
   <path class="fil5" d="M12.86 48.14l22.69 0 -3.59 5.53 -14.05 0c-2.78,0 -5.05,-2.28 -5.05,-5.06l0 -0.47z"/>
   <path class="fil6" d="M41.09 25.31c4.96,2.49 8.36,7.62 8.36,13.54 0,5.93 -3.4,11.05 -8.36,13.54l1.72 5.94 -12.24 0 0.81 -2.93 1.41 -4.93c0.46,-1.6 2.14,-2.47 3.8,-2.47l0.11 0c1.5,0 2.81,0.76 3.54,1.98l-0.04 -0.07c3.95,-2.11 6.63,-6.27 6.63,-11.06 0,-5 -2.94,-9.32 -7.18,-11.33l0.04 -0.02 0 0 0.03 -0.03 0 0 0.03 -0.02 0 -0.01 0.06 -0.04 0.01 -0.01 0.03 -0.02 0.03 -0.03 0 0 0.03 -0.03 0.03 -0.03 0.03 -0.03 0 0 0 0 0.01 0 0.02 -0.03 0.03 -0.02 0.01 -0.01 0.02 -0.02 0.03 -0.03 0 0 0 -0.01 0 0 0.01 0 0 0 0 0 0 -0.01 0 0 0.01 0 0 0 0 0 0 0 0.02 -0.02 0 0 0 -0.01 0 0 0 0 0.01 0 0 0 0 0 0 -0.01 0 0 0 0 0.01 0 0 0 0 -0.01 0 0 0 0 0.01 0 0 0 0 -0.01 0 0 0 0 0 0 0.01 0 0 0 0 -0.01 0 0 0 0 0 0 0.03 -0.03 0 0 0 0 0.03 -0.04 0.03 -0.03 0.03 -0.03 0.04 -0.06 0.01 -0.01 0.01 0 0 0 0.04 -0.06 0 0 0.03 -0.03 0.02 -0.03 0 0 0 -0.01 0.03 -0.03 0.02 -0.03 0.02 -0.04 0 0 0.01 0 0 0 0 0 0 -0.01 0 0 0.03 -0.04 0 0 0 0 0 0 0 0 0 -0.01 0 0 0.01 0 0 0 0 -0.01 0 0 0 0 0 0 0.01 -0.01 0 0 0 -0.01 0.03 -0.03 0 -0.01 0 0 0 0 0 0 0 -0.01 0.01 0 0.02 -0.03 0.02 -0.04 0.02 -0.04 0.02 -0.03 0 0 0 0 0 0 0.02 -0.04 0.04 -0.07 0 0 0 0 0 -0.01 0.04 -0.06 0.01 -0.02 0.03 -0.06 0 0 0.01 -0.04 0.02 -0.04 0.02 -0.04 0 0 0 -0.01 0.02 -0.04 0 0 0 0 0 -0.01 0 0 0.01 0 0 -0.01 0 0 0 0 0 -0.01 0 0 0.01 -0.01 0 0 0 0 0 0 0 0 0 -0.01 0 0 0.01 -0.03 0 0 0 0 0.01 -0.01 0 0 0 0 0 0 0 0 0 -0.01 0 0 0 0 0 -0.01 0.01 0 0 -0.01 0 0 0 0 0 -0.01 0.02 -0.05 0 -0.01 0.02 -0.04 0.01 -0.04 0.01 -0.04 0.02 -0.04 0.01 -0.04 0 0 0.02 -0.08 0 -0.01 0.02 -0.07 0 0 0.01 -0.05z"/>
   <g>
    <path class="fil9" d="M37.3 20.52c0.74,0 1.42,0.21 2.01,0.56 0.39,0.23 0.74,0.54 1.02,0.89l0 0c6.93,2.48 11.89,9.1 11.89,16.88 0,7.2 -4.23,13.4 -10.35,16.25l-0.78 -2.71c4.96,-2.49 8.36,-7.61 8.36,-13.54 0,-5.92 -3.4,-11.05 -8.36,-13.54 -0.4,1.72 -1.94,3 -3.79,3 -0.76,0 -1.47,-0.22 -2.07,-0.6 -1.09,-0.69 -1.82,-1.91 -1.82,-3.29 0,-2.15 1.74,-3.9 3.89,-3.9zm3.89 4.1l0 0.08c0,-0.02 0,-0.05 0,-0.08zm0.01 -0.1c0,-0.04 0,-0.07 0,-0.1l0 0.1z"/>
   </g>
   <path class="fil10" d="M15.49 56.18l18.95 0 12.23 0c2.04,0 3.71,1.67 3.71,3.71l0 3.08 -15.94 0 -22.66 0 0 -3.08c0,-2.04 1.66,-3.71 3.71,-3.71z"/>
   <circle class="fil9" cx="36.62" cy="52.33" r="1.94"/>
  </g>
 </g>
</svg>
