<?xml version="1.0" encoding="UTF-8"?>
<!DOCTYPE svg PUBLIC "-//W3C//DTD SVG 1.1//EN" "http://www.w3.org/Graphics/SVG/1.1/DTD/svg11.dtd">
<!-- Creator: CorelDRAW -->
<svg xmlns="http://www.w3.org/2000/svg" xml:space="preserve" width="64px" height="64px" version="1.1" style="shape-rendering:geometricPrecision; text-rendering:geometricPrecision; image-rendering:optimizeQuality; fill-rule:evenodd; clip-rule:evenodd"
viewBox="0 0 64 64"
 xmlns:xlink="http://www.w3.org/1999/xlink"
 xmlns:xodm="http://www.corel.com/coreldraw/odm/2003">
 <defs>
  <style type="text/css">
   <![CDATA[
    .fil0 {fill:#8A8A8A;fill-rule:nonzero}
   ]]>
  </style>
 </defs>
 <g id="Слой_x0020_1">
  <metadata id="CorelCorpID_0Corel-Layer"/>
  <path class="fil0" d="M35.058 12.102c2.989,-0.801 6.282,-0.468 9.171,1.188l0.033 0.019c0.4,0.23 0.668,0.602 0.779,1.015 0.111,0.414 0.064,0.869 -0.167,1.269l0 0.001c-0.231,0.4 -0.603,0.669 -1.016,0.78 -0.414,0.11 -0.87,0.063 -1.27,-0.168l-0.017 -0.01c-2.093,-1.202 -4.48,-1.444 -6.648,-0.863 -2.172,0.582 -4.124,1.991 -5.335,4.088l-0.009 0.017 -0.001 0.001c-0.232,0.391 -0.598,0.653 -1.005,0.762 -0.414,0.111 -0.87,0.064 -1.27,-0.167l0 0c-0.4,-0.231 -0.669,-0.602 -0.78,-1.016 -0.107,-0.402 -0.066,-0.844 0.149,-1.237l0 -0.001 0.019 -0.032c1.672,-2.896 4.367,-4.842 7.367,-5.646zm-6.382 48.63c-0.451,-0.26 -0.754,-0.678 -0.878,-1.144 -0.125,-0.466 -0.072,-0.979 0.188,-1.43 0.26,-0.451 0.678,-0.753 1.144,-0.878 0.455,-0.122 0.955,-0.074 1.397,0.17l0.001 0 0.032 0.018c0.451,0.261 0.754,0.679 0.878,1.145 0.122,0.454 0.075,0.954 -0.169,1.397l0 0.001 -0.019 0.032c-0.26,0.45 -0.679,0.753 -1.144,0.878 -0.455,0.122 -0.955,0.074 -1.397,-0.17l-0.001 0 -0.032 -0.019zm-21.114 -16.591c-0.649,-0.375 -1.084,-0.977 -1.264,-1.647 -0.177,-0.659 -0.106,-1.385 0.253,-2.026l0 -0.001 0.018 -0.032c0.375,-0.648 0.977,-1.084 1.647,-1.264 0.66,-0.176 1.385,-0.106 2.026,0.253l0.033 0.018c0.649,0.375 1.084,0.977 1.264,1.648 0.179,0.67 0.103,1.409 -0.271,2.058 -0.375,0.649 -0.977,1.085 -1.648,1.264 -0.67,0.18 -1.409,0.104 -2.058,-0.271l0 0zm2.44 8.894c-0.45,-0.26 -0.753,-0.679 -0.878,-1.145 -0.125,-0.465 -0.072,-0.979 0.189,-1.43l0.009 -0.016 0.001 -0.001c0.261,-0.441 0.674,-0.738 1.134,-0.861 0.454,-0.121 0.954,-0.074 1.396,0.17l0.001 0c0.002,0.001 0.048,0.027 0.05,0.029 0.441,0.261 0.738,0.675 0.861,1.134 0.122,0.454 0.074,0.954 -0.17,1.397l-0.019 0.033c-0.26,0.451 -0.678,0.753 -1.144,0.878 -0.454,0.122 -0.954,0.074 -1.397,-0.17l-0.001 0 -0.032 -0.018zm26.075 6.274c-0.649,-0.375 -1.085,-0.977 -1.264,-1.648 -0.18,-0.67 -0.103,-1.409 0.271,-2.058l0 0c0.375,-0.649 0.977,-1.084 1.647,-1.264 0.671,-0.18 1.41,-0.103 2.058,0.271 0.649,0.375 1.085,0.977 1.265,1.647 0.179,0.671 0.103,1.41 -0.271,2.058l0 0.001c-0.375,0.649 -0.977,1.084 -1.648,1.264 -0.67,0.179 -1.409,0.103 -2.058,-0.271zm2.362 -14.779c-5.977,-3.451 -11.952,-6.902 -17.929,-10.351 -0.399,-0.231 -0.668,-0.603 -0.778,-1.017 -0.108,-0.402 -0.067,-0.845 0.147,-1.236l0 -0.001 0.018 -0.032c0.231,-0.399 0.603,-0.667 1.017,-0.778 0.414,-0.111 0.87,-0.065 1.269,0.165 0.324,0 17.227,9.635 17.963,10.372 0.39,0.23 0.652,0.598 0.762,1.006 0.11,0.414 0.064,0.87 -0.166,1.269l-0.001 0.001c-0.23,0.398 -0.602,0.667 -1.016,0.778 -0.413,0.111 -0.87,0.064 -1.269,-0.166l-0.017 -0.01zm8.465 3.622c-0.271,2.229 -0.065,4.471 1.163,6.18 0.231,0.32 0.334,0.699 0.313,1.07 -0.021,0.371 -0.166,0.736 -0.43,1.028 -0.265,0.292 -0.614,0.473 -0.982,0.53 -0.367,0.058 -0.754,-0.006 -1.095,-0.203 -13.217,-7.632 -26.435,-15.262 -39.652,-22.893 -0.341,-0.197 -0.591,-0.5 -0.725,-0.848 -0.133,-0.347 -0.152,-0.739 -0.031,-1.114 0.121,-0.375 0.365,-0.683 0.676,-0.887 0.311,-0.203 0.69,-0.303 1.082,-0.264 2.096,0.209 4.141,-0.733 5.936,-2.082 3.548,-2.668 6.115,-6.92 6.211,-7.08l0 0 3.766 -6.524c1.799,-3.115 4.411,-5.475 7.415,-6.965 3.072,-1.524 6.552,-2.14 9.992,-1.727 0.959,-1.601 2.473,-2.677 4.155,-3.124 1.707,-0.454 3.587,-0.26 5.235,0.691 1.647,0.952 2.755,2.483 3.216,4.189 0.453,1.679 0.278,3.529 -0.628,5.16 2.077,2.772 3.284,6.094 3.5,9.516 0.211,3.346 -0.527,6.788 -2.326,9.903l-3.766 6.523c-0.09,0.164 -2.489,4.513 -3.025,8.921zm-3.41 0.878c0.051,-1.057 0.201,-2.108 0.412,-3.121l0.002 -0.008 0.835 -3.068 0.003 -0.007c0.338,-1.016 0.704,-1.937 1.04,-2.714 0.629,-1.451 1.159,-2.4 1.234,-2.531 0.235,-0.22 3.778,-6.449 3.778,-6.545 1.971,-3.413 2.369,-7.311 1.422,-10.848 -0.948,-3.536 -3.242,-6.712 -6.655,-8.683 -3.414,-1.971 -7.311,-2.369 -10.848,-1.421 -3.536,0.947 -6.712,3.241 -8.683,6.655l-3.772 6.533c-0.079,0.134 -0.639,1.071 -1.58,2.341 -0.505,0.681 -1.121,1.459 -1.832,2.261l-2.245 2.264 -0.006 0.005c-0.773,0.69 -1.608,1.346 -2.496,1.918 -0.715,0.461 -1.463,0.868 -2.241,1.196l31.716 18.311c-0.104,-0.837 -0.126,-1.689 -0.084,-2.538zm6.262 -40.502c-0.292,-0.688 -0.801,-1.289 -1.496,-1.69 -0.695,-0.402 -1.471,-0.542 -2.213,-0.451 -0.686,0.084 -1.343,0.365 -1.88,0.819 0.49,0.169 0.977,0.362 1.46,0.578 0.544,0.244 1.082,0.519 1.61,0.824l0.001 0c0.527,0.304 1.033,0.633 1.518,0.983 0.429,0.31 0.84,0.635 1.232,0.975 0.124,-0.692 0.039,-1.402 -0.232,-2.038zm-32.298 45.149c-0.662,-0.893 -1.149,-1.928 -1.428,-3.06 -0.293,-1.193 -0.36,-2.238 -0.204,-3.243 0.154,-0.994 0.525,-1.945 1.107,-2.961l0.019 -0.032c0.26,-0.451 0.68,-0.754 1.147,-0.879 0.456,-0.122 0.957,-0.075 1.4,0.169 1.039,0.576 11.165,6.471 11.209,6.471 0.451,0.26 0.754,0.68 0.879,1.147 0.125,0.468 0.073,0.983 -0.188,1.434 -0.593,1.027 -1.237,1.834 -2.029,2.471 -0.792,0.637 -1.73,1.101 -2.91,1.444 -1.121,0.325 -2.26,0.422 -3.364,0.295 -1.104,-0.127 -2.174,-0.477 -3.156,-1.044l-0.001 0c-0.981,-0.566 -1.819,-1.318 -2.481,-2.212zm2.057 -3.132c0.408,1.009 1.122,1.884 2.097,2.447 0.975,0.563 2.091,0.744 3.169,0.593 1.05,-0.147 2.065,-0.608 2.881,-1.337l-8.43 -4.867c-0.223,1.071 -0.115,2.18 0.283,3.164z"/>
 </g>
</svg>
