<?xml version="1.0" encoding="UTF-8"?>
<!DOCTYPE svg PUBLIC "-//W3C//DTD SVG 1.1//EN" "http://www.w3.org/Graphics/SVG/1.1/DTD/svg11.dtd">
<!-- Creator: CorelDRAW -->
<svg xmlns="http://www.w3.org/2000/svg" xml:space="preserve" width="64px" height="64px" version="1.1" style="shape-rendering:geometricPrecision; text-rendering:geometricPrecision; image-rendering:optimizeQuality; fill-rule:evenodd; clip-rule:evenodd"
viewBox="0 0 64 64"
 xmlns:xlink="http://www.w3.org/1999/xlink"
 xmlns:xodm="http://www.corel.com/coreldraw/odm/2003">
 <defs>
  <style type="text/css">
   <![CDATA[
    .fil6 {fill:#1E2430}
    .fil7 {fill:#32394B}
    .fil3 {fill:#4F298C}
    .fil2 {fill:#874DE3}
    .fil0 {fill:#BA6B0B}
    .fil5 {fill:#BFC3CC}
    .fil4 {fill:#E2E3E7}
    .fil1 {fill:#FCA437}
   ]]>
  </style>
 </defs>
 <g id="Слой_x0020_1">
  <metadata id="CorelCorpID_0Corel-Layer"/>
  <g id="_1860650190416">
   <g>
    <path class="fil0" d="M29.531 39.16l-1.893 3.279 -1.533 2.655 7.086 4.092 5.819 3.36 6.865 3.963c0.626,0.361 1.418,0.237 1.904,-0.299 0.484,-0.535 0.53,-1.336 0.107,-1.922 -3.698,-5.149 1.711,-14.958 1.849,-15.204l3.756 -6.507c3.616,-6.262 2.898,-13.856 -1.215,-19.288 1.846,-3.226 0.734,-7.356 -2.487,-9.216l-1.533 2.655c1.457,0.842 2.123,2.532 1.739,4.09 -0.875,-0.78 -1.841,-1.482 -2.894,-2.09l-1.533 2.655 -1.247 2.16 -1.516 2.627 -0.001 0 -11.74 20.334 -1.533 2.656zm14.79 -25.617c0.585,0.464 0.758,1.3 0.373,1.966l-0.018 0.031 -0.019 0.031 -0.02 0.03 -0.02 0.029 -0.021 0.028 -0.021 0.028 -0.022 0.028 -0.022 0.026 -0.023 0.027 -0.023 0.025 -0.024 0.025 -0.025 0.024 -0.024 0.024 -0.001 0 -0.025 0.023 -0.026 0.022 -0.026 0.022 -0.026 0.021 -0.027 0.021 0 0 -0.028 0.02 0 0 -0.028 0.019 -0.028 0.019 -0.029 0.018 -0.028 0.017 -0.001 0 -0.029 0.016 -0.029 0.017 -0.03 0.015 0 0 -0.03 0.015 -0.031 0.014 -0.03 0.012 -0.001 0.001 -0.03 0.012 -0.032 0.012 0 0 -0.032 0.011 -0.031 0.011 -0.032 0.01 -0.032 0.009 -0.033 0.008 0 0.001 -0.032 0.007 -0.033 0.007 0 0 -0.033 0.006 0 0.001 -0.033 0.005 -0.033 0.005 -0.033 0.004 0 0 -0.033 0.004 -0.034 0.002 0 0.001 -0.033 0.001 0 0 -0.034 0.002 0 0 -0.034 0 0 0 -0.033 0 -0.034 -0.001 0 0 -0.033 -0.002 -0.001 0.001 -0.033 -0.003 0 0 -0.034 -0.004 0 0.001 -0.034 -0.004 0 0 -0.033 -0.005 0 0 -0.034 -0.006 0 0.001 -0.034 -0.007 0 0.001 -0.033 -0.008 0 0 -0.033 -0.008 -0.001 0.001 -0.033 -0.009 0 0 -0.033 -0.009 0 0 -0.033 -0.011 0 0.001 -0.033 -0.011 0 0 -0.033 -0.012 0 0 -0.032 -0.012 1.516 -2.627z"/>
   </g>
   <path class="fil1" d="M31.064 36.504l11.74 -20.334 -0.003 -0.002 0 0 -0.003 -0.001 0 0 -0.003 -0.001 0 0 -0.004 -0.002 0 0.001 -0.003 -0.002 0 0 -0.003 -0.001 0 0 -0.003 -0.002 -0.001 0.001 -0.002 -0.002 -0.001 0 -0.003 -0.001 0 0 -0.003 -0.002 0 0 -0.003 -0.001 -0.001 0 -0.002 -0.001 -0.001 0 -0.003 -0.002 0 0.001 -0.003 -0.002 0 0 -0.003 -0.002 0 0.001 -0.003 -0.002 0 0 -0.004 -0.001 -0.003 -0.002 -0.003 -0.001 -0.004 -0.002 -0.003 -0.001 -0.003 -0.001 -0.003 -0.002 -0.003 -0.002 -0.001 0.001 -0.003 -0.002 0 0 -0.003 -0.002 0 0.001 -0.003 -0.002 0 0 -0.003 -0.002 0 0.001 -0.003 -0.002 -0.004 -0.001 -0.003 -0.002 0 0 -0.003 -0.002 0 0.001 -0.003 -0.002 -0.003 -0.002 -0.004 -0.001 0 0 -0.003 -0.002 -0.003 -0.001 -0.003 -0.002 0 0 -0.004 -0.002 -0.003 -0.001 0 0 -0.003 -0.002 -0.003 -0.002 0 0.001 -0.003 -0.002 -0.003 -0.002 -0.001 0 -0.003 -0.001 -0.003 -0.002 -0.003 -0.002 -0.003 -0.002 -0.003 -0.001 -0.001 0 -0.002 -0.002 -0.003 -0.001 -0.004 -0.002 -0.003 -0.002 -0.003 -0.002 -0.003 -0.002 -0.004 -0.001 -0.003 -0.002 -0.003 -0.002 -0.003 -0.001 -0.003 -0.002 -0.003 -0.002 -0.003 -0.002 -0.003 -0.002 -0.004 -0.001c-4.247,-2.453 -9.698,-0.992 -12.151,3.255 -0.423,0.734 -1.361,0.985 -2.094,0.562 -0.733,-0.424 -0.985,-1.361 -0.561,-2.095 3.298,-5.711 10.627,-7.675 16.34,-4.378 0.067,0.039 0.129,0.082 0.188,0.128l-1.516 2.627 -0.001 0 0.001 0 -11.741 20.334zm13.257 -22.961l1.247 -2.16 1.533 -2.655c-1.053,-0.608 -2.145,-1.094 -3.257,-1.462 1.156,-1.112 2.954,-1.38 4.411,-0.538l0.001 0 1.533 -2.655c-3.223,-1.86 -7.355,-0.758 -9.225,2.454 -6.762,-0.847 -13.698,2.329 -17.313,8.591l-3.757 6.506c-0.144,0.243 -5.934,9.832 -12.242,9.203 -0.719,-0.072 -1.39,0.367 -1.612,1.055 -0.221,0.687 0.067,1.436 0.693,1.797l7.199 4.157 5.486 3.167 7.087 4.091 1.533 -2.655 1.893 -3.279 1.533 -2.656 13.257 -22.961z"/>
   <path class="fil2" d="M43.844 7.266c1.112,0.368 2.204,0.854 3.257,1.462l1.154 -2c-1.457,-0.842 -3.255,-0.574 -4.411,0.538z"/>
   <path class="fil3" d="M48.255 6.728l-1.154 2c1.053,0.608 2.019,1.31 2.894,2.09 0.384,-1.558 -0.282,-3.249 -1.74,-4.09z"/>
   <path class="fil4" d="M20.582 33.994l8.949 5.166 1.533 -2.656 -8.948 -5.167c-0.731,-0.421 -1.673,-0.169 -2.095,0.561 -0.422,0.731 -0.169,1.674 0.561,2.096z"/>
   <path class="fil4" d="M30.448 19.326c2.453,-4.247 7.904,-5.708 12.151,-3.255 0.067,0.038 0.136,0.071 0.206,0.099l1.516 -2.627c-0.059,-0.046 -0.121,-0.089 -0.188,-0.128 -5.713,-3.297 -13.042,-1.333 -16.34,4.378 -0.424,0.734 -0.172,1.671 0.561,2.095 0.733,0.423 1.671,0.172 2.094,-0.562z"/>
   <path class="fil5" d="M40.012 41.67l-8.948 -5.166 -1.533 2.656 8.948 5.166c0.73,0.422 1.672,0.169 2.095,-0.561 0.422,-0.731 0.169,-1.673 -0.562,-2.095z"/>
   <path class="fil5" d="M42.805 16.17c0.695,0.274 1.504,0.006 1.889,-0.661 0.385,-0.666 0.212,-1.502 -0.373,-1.966l-1.516 2.627z"/>
   <path class="fil6" d="M20.014 55.644c1.925,1.112 4.197,1.372 6.397,0.734 2.318,-0.673 3.679,-1.821 4.846,-3.843 0.482,-0.834 0.194,-1.907 -0.64,-2.388l-5.572 -3.217 -1.533 2.656 -1.965 3.403 -1.533 2.655z"/>
   <path class="fil7" d="M20.014 55.644l1.533 -2.655 1.965 -3.403 1.533 -2.656 -5.573 -3.218c-0.834,-0.481 -1.907,-0.194 -2.388,0.64 -1.168,2.022 -1.482,3.774 -0.905,6.118 0.547,2.225 1.91,4.063 3.835,5.174z"/>
   <circle class="fil3" transform="matrix(8.57537 4.95099 -4.95099 8.57537 37.4215 56.7712)" r="0.26"/>
   <circle class="fil2" transform="matrix(5.81921 3.35972 -3.35972 5.81921 11.006 51.23)" r="0.26"/>
   <circle class="fil2" transform="matrix(8.57537 4.95099 -4.95099 8.57537 8.98547 41.6455)" r="0.26"/>
   <circle class="fil3" transform="matrix(5.81921 3.35972 -3.35972 5.81921 29.6278 58.9064)" r="0.26"/>
  </g>
 </g>
</svg>
